<?xml version="1.0" encoding="UTF-8" standalone="no"?>
<svg xmlns:rdf="http://www.w3.org/1999/02/22-rdf-syntax-ns#" xmlns="http://www.w3.org/2000/svg" height="338.67mm" width="508mm" version="1.1" xmlns:cc="http://creativecommons.org/ns#" xmlns:dc="http://purl.org/dc/elements/1.1/" viewBox="0 0 1800 1200">
<defs>
<filter id="r" style="color-interpolation-filters:sRGB" height="1.5" width="1.5" y="-.25" x="-.25">
<feBlend result="result1" in2="SourceGraphic" mode="screen"/>
<feGaussianBlur stdDeviation="7" result="result6"/>
<feComposite operator="xor" result="result7" in2="result6" in="result6"/>
<feComposite operator="atop" result="result92" in2="result1" in="result6"/>
<feComposite operator="xor" result="result4" in2="result92" in="result7"/>
<feGaussianBlur stdDeviation="0.7" result="result3" in="result4"/>
<feSpecularLighting specularConstant="1.5" result="result5" specularExponent="50" surfaceScale="4">
<fePointLight y="-8000" x="-5000" z="20000"/>
</feSpecularLighting>
<feComposite in2="SourceGraphic" k3="1" k2="1" result="result93" in="result3" operator="arithmetic"/>
<feComposite operator="atop" result="result94" in2="result93" in="result5"/>
<feBlend mode="multiply" in2="result94"/>
</filter>
<filter id="q" style="color-interpolation-filters:sRGB" height="1.5" width="1.5" y="-.25" x="-.25">
<feBlend result="result1" in2="SourceGraphic" mode="screen"/>
<feGaussianBlur stdDeviation="7" result="result6"/>
<feComposite operator="xor" result="result7" in2="result6" in="result6"/>
<feComposite operator="atop" result="result92" in2="result1" in="result6"/>
<feComposite operator="xor" result="result4" in2="result92" in="result7"/>
<feGaussianBlur stdDeviation="0.7" result="result3" in="result4"/>
<feSpecularLighting specularConstant="1.5" result="result5" specularExponent="50" surfaceScale="4">
<fePointLight y="-8000" x="-5000" z="20000"/>
</feSpecularLighting>
<feComposite in2="SourceGraphic" k3="1" k2="1" result="result93" in="result3" operator="arithmetic"/>
<feComposite operator="atop" result="result94" in2="result93" in="result5"/>
<feBlend mode="multiply" in2="result94"/>
</filter>
<filter id="p" style="color-interpolation-filters:sRGB" height="1.5" width="1.5" y="-.25" x="-.25">
<feBlend result="result1" in2="SourceGraphic" mode="screen"/>
<feGaussianBlur stdDeviation="7" result="result6"/>
<feComposite operator="xor" result="result7" in2="result6" in="result6"/>
<feComposite operator="atop" result="result92" in2="result1" in="result6"/>
<feComposite operator="xor" result="result4" in2="result92" in="result7"/>
<feGaussianBlur stdDeviation="0.7" result="result3" in="result4"/>
<feSpecularLighting specularConstant="1.5" result="result5" specularExponent="50" surfaceScale="4">
<fePointLight y="-8000" x="-5000" z="20000"/>
</feSpecularLighting>
<feComposite in2="SourceGraphic" k3="1" k2="1" result="result93" in="result3" operator="arithmetic"/>
<feComposite operator="atop" result="result94" in2="result93" in="result5"/>
<feBlend mode="multiply" in2="result94"/>
</filter>
<filter id="o" style="color-interpolation-filters:sRGB" height="1.5" width="1.5" y="-.25" x="-.25">
<feBlend result="result1" in2="SourceGraphic" mode="screen"/>
<feGaussianBlur stdDeviation="7" result="result6"/>
<feComposite operator="xor" result="result7" in2="result6" in="result6"/>
<feComposite operator="atop" result="result92" in2="result1" in="result6"/>
<feComposite operator="xor" result="result4" in2="result92" in="result7"/>
<feGaussianBlur stdDeviation="0.7" result="result3" in="result4"/>
<feSpecularLighting specularConstant="1.5" result="result5" specularExponent="50" surfaceScale="4">
<fePointLight y="-8000" x="-5000" z="20000"/>
</feSpecularLighting>
<feComposite in2="SourceGraphic" k3="1" k2="1" result="result93" in="result3" operator="arithmetic"/>
<feComposite operator="atop" result="result94" in2="result93" in="result5"/>
<feBlend mode="multiply" in2="result94"/>
</filter>
<filter id="n" style="color-interpolation-filters:sRGB" height="1.5" width="1.5" y="-.25" x="-.25">
<feBlend result="result1" in2="SourceGraphic" mode="screen"/>
<feGaussianBlur stdDeviation="7" result="result6"/>
<feComposite operator="xor" result="result7" in2="result6" in="result6"/>
<feComposite operator="atop" result="result92" in2="result1" in="result6"/>
<feComposite operator="xor" result="result4" in2="result92" in="result7"/>
<feGaussianBlur stdDeviation="0.7" result="result3" in="result4"/>
<feSpecularLighting specularConstant="1.5" result="result5" specularExponent="50" surfaceScale="4">
<fePointLight y="-8000" x="-5000" z="20000"/>
</feSpecularLighting>
<feComposite in2="SourceGraphic" k3="1" k2="1" result="result93" in="result3" operator="arithmetic"/>
<feComposite operator="atop" result="result94" in2="result93" in="result5"/>
<feBlend mode="multiply" in2="result94"/>
</filter>
<filter id="m" style="color-interpolation-filters:sRGB" height="1.5" width="1.5" y="-.25" x="-.25">
<feBlend result="result1" in2="SourceGraphic" mode="screen"/>
<feGaussianBlur stdDeviation="7" result="result6"/>
<feComposite operator="xor" result="result7" in2="result6" in="result6"/>
<feComposite operator="atop" result="result92" in2="result1" in="result6"/>
<feComposite operator="xor" result="result4" in2="result92" in="result7"/>
<feGaussianBlur stdDeviation="0.7" result="result3" in="result4"/>
<feSpecularLighting specularConstant="1.5" result="result5" specularExponent="50" surfaceScale="4">
<fePointLight y="-8000" x="-5000" z="20000"/>
</feSpecularLighting>
<feComposite in2="SourceGraphic" k3="1" k2="1" result="result93" in="result3" operator="arithmetic"/>
<feComposite operator="atop" result="result94" in2="result93" in="result5"/>
<feBlend mode="multiply" in2="result94"/>
</filter>
<filter id="l" style="color-interpolation-filters:sRGB" height="1.5" width="1.5" y="-.25" x="-.25">
<feBlend result="result1" in2="SourceGraphic" mode="screen"/>
<feGaussianBlur stdDeviation="7" result="result6"/>
<feComposite operator="xor" result="result7" in2="result6" in="result6"/>
<feComposite operator="atop" result="result92" in2="result1" in="result6"/>
<feComposite operator="xor" result="result4" in2="result92" in="result7"/>
<feGaussianBlur stdDeviation="0.7" result="result3" in="result4"/>
<feSpecularLighting specularConstant="1.5" result="result5" specularExponent="50" surfaceScale="4">
<fePointLight y="-8000" x="-5000" z="20000"/>
</feSpecularLighting>
<feComposite in2="SourceGraphic" k3="1" k2="1" result="result93" in="result3" operator="arithmetic"/>
<feComposite operator="atop" result="result94" in2="result93" in="result5"/>
<feBlend mode="multiply" in2="result94"/>
</filter>
<filter id="k" style="color-interpolation-filters:sRGB" height="1.5" width="1.5" y="-.25" x="-.25">
<feBlend result="result1" in2="SourceGraphic" mode="screen"/>
<feGaussianBlur stdDeviation="7" result="result6"/>
<feComposite operator="xor" result="result7" in2="result6" in="result6"/>
<feComposite operator="atop" result="result92" in2="result1" in="result6"/>
<feComposite operator="xor" result="result4" in2="result92" in="result7"/>
<feGaussianBlur stdDeviation="0.7" result="result3" in="result4"/>
<feSpecularLighting specularConstant="1.5" result="result5" specularExponent="50" surfaceScale="4">
<fePointLight y="-8000" x="-5000" z="20000"/>
</feSpecularLighting>
<feComposite in2="SourceGraphic" k3="1" k2="1" result="result93" in="result3" operator="arithmetic"/>
<feComposite operator="atop" result="result94" in2="result93" in="result5"/>
<feBlend mode="multiply" in2="result94"/>
</filter>
<filter id="j" style="color-interpolation-filters:sRGB" height="1.5" width="1.5" y="-.25" x="-.25">
<feBlend result="result1" in2="SourceGraphic" mode="screen"/>
<feGaussianBlur stdDeviation="7" result="result6"/>
<feComposite operator="xor" result="result7" in2="result6" in="result6"/>
<feComposite operator="atop" result="result92" in2="result1" in="result6"/>
<feComposite operator="xor" result="result4" in2="result92" in="result7"/>
<feGaussianBlur stdDeviation="0.7" result="result3" in="result4"/>
<feSpecularLighting specularConstant="1.5" result="result5" specularExponent="50" surfaceScale="4">
<fePointLight y="-8000" x="-5000" z="20000"/>
</feSpecularLighting>
<feComposite in2="SourceGraphic" k3="1" k2="1" result="result93" in="result3" operator="arithmetic"/>
<feComposite operator="atop" result="result94" in2="result93" in="result5"/>
<feBlend mode="multiply" in2="result94"/>
</filter>
<filter id="i" style="color-interpolation-filters:sRGB" height="1.5" width="1.5" y="-.25" x="-.25">
<feBlend result="result1" in2="SourceGraphic" mode="screen"/>
<feGaussianBlur stdDeviation="7" result="result6"/>
<feComposite operator="xor" result="result7" in2="result6" in="result6"/>
<feComposite operator="atop" result="result92" in2="result1" in="result6"/>
<feComposite operator="xor" result="result4" in2="result92" in="result7"/>
<feGaussianBlur stdDeviation="0.7" result="result3" in="result4"/>
<feSpecularLighting specularConstant="1.5" result="result5" specularExponent="50" surfaceScale="4">
<fePointLight y="-8000" x="-5000" z="20000"/>
</feSpecularLighting>
<feComposite in2="SourceGraphic" k3="1" k2="1" result="result93" in="result3" operator="arithmetic"/>
<feComposite operator="atop" result="result94" in2="result93" in="result5"/>
<feBlend mode="multiply" in2="result94"/>
</filter>
<filter id="h" style="color-interpolation-filters:sRGB" height="1.5" width="1.5" y="-.25" x="-.25">
<feBlend result="result1" in2="SourceGraphic" mode="screen"/>
<feGaussianBlur stdDeviation="7" result="result6"/>
<feComposite operator="xor" result="result7" in2="result6" in="result6"/>
<feComposite operator="atop" result="result92" in2="result1" in="result6"/>
<feComposite operator="xor" result="result4" in2="result92" in="result7"/>
<feGaussianBlur stdDeviation="0.7" result="result3" in="result4"/>
<feSpecularLighting specularConstant="1.5" result="result5" specularExponent="50" surfaceScale="4">
<fePointLight y="-8000" x="-5000" z="20000"/>
</feSpecularLighting>
<feComposite in2="SourceGraphic" k3="1" k2="1" result="result93" in="result3" operator="arithmetic"/>
<feComposite operator="atop" result="result94" in2="result93" in="result5"/>
<feBlend mode="multiply" in2="result94"/>
</filter>
<filter id="g" style="color-interpolation-filters:sRGB" height="1.5" width="1.5" y="-.25" x="-.25">
<feBlend result="result1" in2="SourceGraphic" mode="screen"/>
<feGaussianBlur stdDeviation="7" result="result6"/>
<feComposite operator="xor" result="result7" in2="result6" in="result6"/>
<feComposite operator="atop" result="result92" in2="result1" in="result6"/>
<feComposite operator="xor" result="result4" in2="result92" in="result7"/>
<feGaussianBlur stdDeviation="0.7" result="result3" in="result4"/>
<feSpecularLighting specularConstant="1.5" result="result5" specularExponent="50" surfaceScale="4">
<fePointLight y="-8000" x="-5000" z="20000"/>
</feSpecularLighting>
<feComposite in2="SourceGraphic" k3="1" k2="1" result="result93" in="result3" operator="arithmetic"/>
<feComposite operator="atop" result="result94" in2="result93" in="result5"/>
<feBlend mode="multiply" in2="result94"/>
</filter>
<filter id="f" style="color-interpolation-filters:sRGB" height="1.5" width="1.5" y="-.25" x="-.25">
<feBlend result="result1" in2="SourceGraphic" mode="screen"/>
<feGaussianBlur stdDeviation="7" result="result6"/>
<feComposite operator="xor" result="result7" in2="result6" in="result6"/>
<feComposite operator="atop" result="result92" in2="result1" in="result6"/>
<feComposite operator="xor" result="result4" in2="result92" in="result7"/>
<feGaussianBlur stdDeviation="0.7" result="result3" in="result4"/>
<feSpecularLighting specularConstant="1.5" result="result5" specularExponent="50" surfaceScale="4">
<fePointLight y="-8000" x="-5000" z="20000"/>
</feSpecularLighting>
<feComposite in2="SourceGraphic" k3="1" k2="1" result="result93" in="result3" operator="arithmetic"/>
<feComposite operator="atop" result="result94" in2="result93" in="result5"/>
<feBlend mode="multiply" in2="result94"/>
</filter>
<filter id="e" style="color-interpolation-filters:sRGB" height="1.5" width="1.5" y="-.25" x="-.25">
<feBlend result="result1" in2="SourceGraphic" mode="screen"/>
<feGaussianBlur stdDeviation="7" result="result6"/>
<feComposite operator="xor" result="result7" in2="result6" in="result6"/>
<feComposite operator="atop" result="result92" in2="result1" in="result6"/>
<feComposite operator="xor" result="result4" in2="result92" in="result7"/>
<feGaussianBlur stdDeviation="0.7" result="result3" in="result4"/>
<feSpecularLighting specularConstant="1.5" result="result5" specularExponent="50" surfaceScale="4">
<fePointLight y="-8000" x="-5000" z="20000"/>
</feSpecularLighting>
<feComposite in2="SourceGraphic" k3="1" k2="1" result="result93" in="result3" operator="arithmetic"/>
<feComposite operator="atop" result="result94" in2="result93" in="result5"/>
<feBlend mode="multiply" in2="result94"/>
</filter>
<filter id="d" style="color-interpolation-filters:sRGB" height="1.5" width="1.5" y="-.25" x="-.25">
<feBlend result="result1" in2="SourceGraphic" mode="screen"/>
<feGaussianBlur stdDeviation="7" result="result6"/>
<feComposite operator="xor" result="result7" in2="result6" in="result6"/>
<feComposite operator="atop" result="result92" in2="result1" in="result6"/>
<feComposite operator="xor" result="result4" in2="result92" in="result7"/>
<feGaussianBlur stdDeviation="0.7" result="result3" in="result4"/>
<feSpecularLighting specularConstant="1.5" result="result5" specularExponent="50" surfaceScale="4">
<fePointLight y="-8000" x="-5000" z="20000"/>
</feSpecularLighting>
<feComposite in2="SourceGraphic" k3="1" k2="1" result="result93" in="result3" operator="arithmetic"/>
<feComposite operator="atop" result="result94" in2="result93" in="result5"/>
<feBlend mode="multiply" in2="result94"/>
</filter>
<filter id="c" style="color-interpolation-filters:sRGB" height="1.5" width="1.5" y="-.25" x="-.25">
<feBlend result="result1" in2="SourceGraphic" mode="screen"/>
<feGaussianBlur stdDeviation="7" result="result6"/>
<feComposite operator="xor" result="result7" in2="result6" in="result6"/>
<feComposite operator="atop" result="result92" in2="result1" in="result6"/>
<feComposite operator="xor" result="result4" in2="result92" in="result7"/>
<feGaussianBlur stdDeviation="0.7" result="result3" in="result4"/>
<feSpecularLighting specularConstant="1.5" result="result5" specularExponent="50" surfaceScale="4">
<fePointLight y="-8000" x="-5000" z="20000"/>
</feSpecularLighting>
<feComposite in2="SourceGraphic" k3="1" k2="1" result="result93" in="result3" operator="arithmetic"/>
<feComposite operator="atop" result="result94" in2="result93" in="result5"/>
<feBlend mode="multiply" in2="result94"/>
</filter>
<filter id="b" style="color-interpolation-filters:sRGB" height="1.5" width="1.5" y="-.25" x="-.25">
<feBlend result="result1" in2="SourceGraphic" mode="screen"/>
<feGaussianBlur stdDeviation="7" result="result6"/>
<feComposite operator="xor" result="result7" in2="result6" in="result6"/>
<feComposite operator="atop" result="result92" in2="result1" in="result6"/>
<feComposite operator="xor" result="result4" in2="result92" in="result7"/>
<feGaussianBlur stdDeviation="0.7" result="result3" in="result4"/>
<feSpecularLighting specularConstant="1.5" result="result5" specularExponent="50" surfaceScale="4">
<fePointLight y="-8000" x="-5000" z="20000"/>
</feSpecularLighting>
<feComposite in2="SourceGraphic" k3="1" k2="1" result="result93" in="result3" operator="arithmetic"/>
<feComposite operator="atop" result="result94" in2="result93" in="result5"/>
<feBlend mode="multiply" in2="result94"/>
</filter>
<clipPath id="s" clipPathUnits="userSpaceOnUse">
<rect height="600" width="600" y="244.35" x="-160.36" fill="#c8b7b7"/>
</clipPath>
<pattern id="a" width="600.00002" patternUnits="userSpaceOnUse" patternTransform="translate(-160.36 244.35)" height="600.00014">
<g transform="translate(160.36 -244.35)">
<rect height="600" width="600" y="244.35" x="-160.36"/>
<g clip-path="url(#s)">
<path d="m417.38 348.35c1.7025 5.3475 4.014 10.662 7.653 15.021 5.1225 6.6795 12.366 11.472 20.038 14.768 16.483 6.7275 35.706 6.8805 52.161-0.018 12.78-5.1705 23.864-15.668 27.417-29.265 0.426-1.008 0.6 1.044 0.633 1.2645 1.9605 15.372-8.004 29.73-20.556 37.598-1.1025 0.903-2.544 1.356-3.6105 2.2665-1.566 10.878-2.109 21.894-2.5005 32.869-0.324 11.733-0.9255 23.889 3.081 35.138 8.6055 4.974 16.26 12.1 20.511 21.204 2.895 6.2085 4.242 13.564 2.697 20.187-2.3685-8.508-7.53-16.737-14.733-22.248-11.578-9.1905-26.712-13.142-41.344-12.668-15.482 0.4065-31.437 6.093-42.075 17.628-4.3755 4.887-7.5375 10.81-9.261 17.138-0.5415 0.159-0.2475-0.591-0.342-0.912-1.512-8.6835 1.2795-17.595 6.1815-24.748 4.359-6.456 10.476-11.703 17.228-15.477 3.942-11.046 3.4395-22.986 3.177-34.516-0.4395-11.246-0.837-22.59-2.595-33.709-8.205-4.4505-15.474-11.054-19.986-19.318-3.627-6.7005-5.481-14.673-3.774-22.2m41.899 48.032c-1.5555 13.99-1.9545 28.075-1.8555 42.142 0.153 4.3185 0.555 8.6415 1.3905 12.886 8.1345-1.455 16.502-1.3035 24.626-0.0555 1.89-8.1165 1.419-16.518 1.413-24.783-0.2925-10.056-0.7545-20.134-1.8375-30.141-7.848 1.0695-15.879 1.1415-23.736-0.0495z" filter="url(#b)" fill="#fb7603"/>
<path d="m-182.62 348.35c1.7025 5.3475 4.014 10.662 7.653 15.021 5.1225 6.6795 12.366 11.472 20.038 14.768 16.483 6.7275 35.706 6.8805 52.161-0.018 12.78-5.1705 23.863-15.668 27.417-29.265 0.426-1.008 0.6 1.044 0.633 1.2645 1.9605 15.372-8.004 29.73-20.556 37.598-1.1025 0.903-2.544 1.356-3.6105 2.2665-1.566 10.878-2.109 21.894-2.5005 32.869-0.324 11.733-0.9255 23.889 3.081 35.138 8.6055 4.974 16.26 12.1 20.511 21.204 2.895 6.2085 4.242 13.564 2.697 20.187-2.3685-8.508-7.53-16.737-14.733-22.248-11.578-9.1905-26.712-13.142-41.344-12.668-15.482 0.4065-31.437 6.093-42.075 17.628-4.3755 4.887-7.5375 10.81-9.261 17.138-0.5415 0.159-0.2475-0.591-0.342-0.912-1.512-8.6835 1.2795-17.595 6.1815-24.748 4.359-6.456 10.476-11.703 17.228-15.477 3.942-11.046 3.4395-22.986 3.177-34.516-0.4395-11.246-0.837-22.59-2.595-33.709-8.205-4.4505-15.474-11.054-19.986-19.318-3.627-6.7005-5.481-14.673-3.774-22.2m41.899 48.032c-1.5555 13.99-1.9545 28.075-1.8555 42.142 0.153 4.3185 0.555 8.6415 1.3905 12.886 8.1345-1.455 16.502-1.3035 24.626-0.0555 1.89-8.1165 1.419-16.518 1.413-24.783-0.2925-10.056-0.7545-20.134-1.8375-30.141-7.848 1.0695-15.879 1.1415-23.736-0.0495z" filter="url(#c)" fill="#fb7603"/>
<path d="m-134.23 500.12c13.636-1.1925 27.228 6.624 33.456 18.718 0.486 0.465 0.4215 1.5585 1.2225 1.5795 2.7285-4.9305 6.051-9.6825 10.593-13.122 13.31-10.629 34.917-9.783 46.503 3.0315 5.901 5.9415 8.913 14.499 8.4615 22.828-0.489 6.9705-3.588 13.702-8.5455 18.624-0.1905 0.0615-0.5865 0.2445-0.411-0.1215 1.497-5.181 2.2755-10.688 1.308-16.04-1.074-6.2445-4.587-12.375-9.8175-15.843-9.4095-6.555-23.818-4.809-31.142 4.074-3.9795 4.809-6.492 10.659-8.1405 16.628-2.064 26.498-0.882 53.234 2.619 79.57-7.6275-0.063-15.268 0.0735-22.887-0.066 3.3075-24.981 4.9035-50.322 3.528-75.502-1.7895-7.4895-4.446-15.028-9.4815-20.991-3.963-4.71-10.006-7.3635-16.116-7.581-7.5345-0.9555-14.898 3.2235-19.089 9.324-5.5575 7.7565-6.603 18.124-3.9015 27.154-4.0215-3.924-6.627-9.1515-7.7055-14.636-2.3835-12.153 3.132-25.428 13.456-32.266 4.701-3.291 10.368-5.0835 16.089-5.364z" filter="url(#d)" fill="#de0101"/>
<path d="m465.77 500.12c13.636-1.1925 27.228 6.624 33.456 18.718 0.486 0.465 0.4215 1.5585 1.2225 1.5795 2.7285-4.9305 6.051-9.6825 10.593-13.122 13.31-10.629 34.917-9.783 46.503 3.0315 5.901 5.9415 8.913 14.499 8.4615 22.828-0.489 6.9705-3.588 13.702-8.5455 18.624-0.1905 0.0615-0.5865 0.2445-0.411-0.1215 1.497-5.181 2.2755-10.688 1.308-16.04-1.074-6.2445-4.587-12.375-9.8175-15.843-9.4095-6.555-23.818-4.809-31.142 4.074-3.9795 4.809-6.492 10.659-8.1405 16.628-2.064 26.498-0.882 53.234 2.619 79.57-7.6275-0.063-15.268 0.0735-22.887-0.066 3.3075-24.981 4.9035-50.322 3.528-75.502-1.7895-7.4895-4.446-15.028-9.4815-20.991-3.963-4.71-10.006-7.3635-16.116-7.581-7.5345-0.9555-14.898 3.2235-19.089 9.324-5.5575 7.7565-6.603 18.124-3.9015 27.154-4.0215-3.924-6.627-9.1515-7.7055-14.636-2.3835-12.153 3.132-25.428 13.456-32.266 4.701-3.291 10.368-5.0835 16.089-5.364z" filter="url(#e)" fill="#de0101"/>
<path d="m-25.936 148.66c5.7915 0.27756 11.649-0.144 17.408 0.366-2.373 19.023-12.914 37.557-29.714 47.352-0.657 0.159-0.5385 0.9795 0.0225 1.152 15.788 8.8035 25.335 27.374 23.384 45.342-1.1055 11.934-7.0965 23.283-16.21 31.041-10.772 9.396-26.013 13.389-40.005 10.446-13.706-2.6415-25.882-11.876-32.346-24.202-6.4845-12.12-7.2-27.201-1.8105-39.86 3.9045-9.4335 10.954-17.536 19.777-22.672 0.534-0.3825-0.117-0.8655-0.5235-0.966-17.209-9.4336-28.042-28.436-29.085-47.841 5.8905-0.0376 11.781 0.024 17.671-0.03-1.0005 10.557 2.4825 21.451 9.435 29.454 5.673 6.591 13.802 11.182 22.496 12.151 9.4005 1.314 19.156-1.7114 26.512-7.6124 10.101-7.899 15.192-21.5 12.988-34.121m-37.892 52.862c-7.6005 0.75-15.117 3.723-20.77 8.937-10 8.844-13.815 23.973-9.0405 36.49 2.9235 8.52 9.4725 15.654 17.667 19.382 9.909 4.6665 22.148 4.05 31.526-1.6185 5.721-3.3195 10.372-8.415 13.222-14.376 5.5065-11.062 4.1895-25.114-3.2175-34.99-6.6525-9.108-18.15-14.409-29.386-13.824z" filter="url(#f)" fill="#f75500"/>
<path d="m-25.936 748.66c5.7915 0.27756 11.649-0.144 17.408 0.366-2.373 19.023-12.914 37.557-29.714 47.352-0.657 0.159-0.5385 0.9795 0.0225 1.152 15.788 8.8035 25.335 27.374 23.384 45.342-1.1055 11.934-7.0965 23.283-16.21 31.041-10.772 9.396-26.013 13.389-40.005 10.446-13.706-2.6415-25.882-11.876-32.346-24.202-6.4845-12.12-7.2-27.201-1.8105-39.86 3.9045-9.4335 10.954-17.536 19.777-22.672 0.534-0.3825-0.117-0.8655-0.5235-0.966-17.209-9.4336-28.042-28.436-29.085-47.841 5.8905-0.0376 11.781 0.024 17.671-0.03-1.0005 10.557 2.4825 21.451 9.435 29.454 5.673 6.591 13.802 11.182 22.496 12.151 9.4005 1.314 19.156-1.7114 26.512-7.6124 10.101-7.899 15.192-21.5 12.988-34.121m-37.892 52.862c-7.6005 0.75-15.117 3.723-20.77 8.937-10 8.844-13.815 23.973-9.0405 36.49 2.9235 8.52 9.4725 15.654 17.667 19.382 9.909 4.6665 22.148 4.05 31.526-1.6185 5.721-3.3195 10.372-8.415 13.222-14.376 5.5065-11.062 4.1895-25.114-3.2175-34.99-6.6525-9.108-18.15-14.409-29.386-13.824z" filter="url(#g)" fill="#f75500"/>
<path d="m50.836 197.1c9.3495 2.6595 18.168 8.619 22.773 17.398 0.12 0.483 0.912 0.654 1.1265 0.195 9.2355-14.442 33.423-15.796 43.34-1.4685 1.095 0.4845 1.413-1.2555 2.226-1.737 10.426-12.441 32.662-11.766 41.992 1.635 1.02 1.674 1.8525-0.8355 2.7015-1.4145 8.7645-11.538 26.562-13.989 38.639-6.3345 4.7115 2.8845 8.2695 7.3095 10.764 12.182 4.4865 9.255 5.8605 19.864 4.863 30.046-1.425 21.705-8.5635 42.972-20.41 61.191-0.4875 0.9675-2.1015 2.358-0.732 3.336 5.9445 5.9535 12.753 11.2 20.186 15.096 0.1125 0.2055 0.099 0.4665-0.0315 0.666-3.12 5.3805-6.318 10.708-9.4275 16.095-0.1125 0.1755-0.2355 0.4335-0.489 0.384-7.146-5.4855-13.542-11.91-19.287-18.836-0.3555-0.3-0.6435-1.0065-1.203-0.7755-5.01 6.687-10.388 13.101-16.094 19.202-0.5985 0.531-1.068 1.566-1.92 1.584-3.648-6.0885-7.194-12.228-10.804-18.339-0.174-0.3315-0.552-0.819-0.2715-1.176 7.53-2.1525 14.255-6.567 20.196-11.612 0.414-0.3675 1.173-0.9045 0.7065-1.5165-13.995-21.057-21.194-46.419-20.876-71.68-1.308-0.5295-3.246-0.0135-4.7595-0.2145 0.207-4.986 1.548-9.8475 2.9355-14.614-0.7065-5.574-4.9965-11.132-10.809-12.004-4.752-0.7875-10.509 0.0345-13.602 4.1265-4.2135 6.297-3.7245 14.658-1.5045 21.598-1.8345 0.216-3.693 0.2235-5.52 0.5025 0.468 14.196 1.833 28.4 4.176 42.41-6.5355-0.0165-13.071 0.0106-19.606-0.012-0.588 0.036-0.1965-0.708-0.165-1.035 2.2095-13.342 3.417-26.848 4.011-40.346-1.8945-0.141-3.765 0.357-5.6535 0.2715 0.504-5.946 2.5785-11.64 4.008-17.367-1.044-3.6045-3.2565-7.1175-6.57-9.0255-5.844-3.039-14.496-2.733-18.597 3.03-3.9165 6.39-3.279 14.745-0.5025 21.405-1.5585 1.2855-6.2055-0.8985-5.898 2.0685 0.336 13.686 1.3935 27.549 4.71 40.838-6.3675 0.279-13.401 0.2865-19.738-0.004 2.994-13.488 4.434-27.384 4.527-41.157-2.061-0.213-4.155 0.174-6.216 0.3675 0.771-4.221 2.055-8.325 3.3195-12.418 0.162-0.7305 0.777-1.4715 0.4065-2.238-0.8385-2.2605-2.007-4.4685-3.7245-6.183-2.844-3.618-8.5485-4.755-12.381-2.049-0.246 0.0855-0.7395 0.684-0.789 0.174-0.063-7.4145-0.0165-14.83-0.024-22.244m137.18 18.801c-3.1965 0.276-6.4065 1.611-8.52 4.0875-4.809 5.8155-5.802 13.869-5.5065 21.172-1.5315-0.042-3.459-0.519-4.728 0.0915-0.0555 21.708 6.7335 43.659 20.15 60.872 0.306 0.5295 0.843 0.138 1.026-0.246 12.09-17.06 18-38.23 17.45-59.067 0.018-4.7325-0.8805-9.4515-2.4255-13.917-1.4805-4.155-3.6525-8.3865-7.458-10.845-2.9115-1.947-6.5325-2.613-9.987-2.148z" filter="url(#h)" fill="#83fb00"/>
<path d="m50.836 797.1c9.3495 2.6595 18.168 8.619 22.773 17.398 0.12 0.483 0.912 0.654 1.1265 0.195 9.2355-14.442 33.423-15.796 43.34-1.4685 1.095 0.4845 1.413-1.2555 2.226-1.737 10.426-12.441 32.662-11.766 41.992 1.635 1.02 1.674 1.8525-0.8355 2.7015-1.4145 8.7645-11.538 26.562-13.989 38.639-6.3345 4.7115 2.8845 8.2695 7.3095 10.764 12.182 4.4865 9.255 5.8605 19.864 4.863 30.046-1.425 21.705-8.5635 42.972-20.41 61.191-0.4875 0.9675-2.1015 2.358-0.732 3.336 5.9445 5.9535 12.753 11.2 20.186 15.096 0.1125 0.2055 0.099 0.4665-0.0315 0.666-3.12 5.3805-6.318 10.708-9.4275 16.095-0.1125 0.1755-0.2355 0.4335-0.489 0.384-7.146-5.4855-13.542-11.91-19.287-18.836-0.3555-0.3-0.6435-1.0065-1.203-0.7755-5.01 6.687-10.388 13.101-16.094 19.202-0.5985 0.531-1.068 1.566-1.92 1.584-3.648-6.0885-7.194-12.228-10.804-18.339-0.174-0.3315-0.552-0.819-0.2715-1.176 7.53-2.1525 14.255-6.567 20.196-11.612 0.414-0.3675 1.173-0.9045 0.7065-1.5165-13.995-21.057-21.194-46.419-20.876-71.68-1.308-0.5295-3.246-0.0135-4.7595-0.2145 0.207-4.986 1.548-9.8475 2.9355-14.614-0.7065-5.574-4.9965-11.132-10.809-12.004-4.752-0.7875-10.509 0.0345-13.602 4.1265-4.2135 6.297-3.7245 14.658-1.5045 21.598-1.8345 0.216-3.693 0.2235-5.52 0.5025 0.468 14.196 1.833 28.4 4.176 42.41-6.5355-0.0165-13.071 0.0106-19.606-0.012-0.588 0.036-0.1965-0.708-0.165-1.035 2.2095-13.342 3.417-26.848 4.011-40.346-1.8945-0.141-3.765 0.357-5.6535 0.2715 0.504-5.946 2.5785-11.64 4.008-17.367-1.044-3.6045-3.2565-7.1175-6.57-9.0255-5.844-3.039-14.496-2.733-18.597 3.03-3.9165 6.39-3.279 14.745-0.5025 21.405-1.5585 1.2855-6.2055-0.8985-5.898 2.0685 0.336 13.686 1.3935 27.549 4.71 40.838-6.3675 0.279-13.401 0.2865-19.738-0.004 2.994-13.488 4.434-27.384 4.527-41.157-2.061-0.213-4.155 0.174-6.216 0.3675 0.771-4.221 2.055-8.325 3.3195-12.418 0.162-0.7305 0.777-1.4715 0.4065-2.238-0.8385-2.2605-2.007-4.4685-3.7245-6.183-2.844-3.618-8.5485-4.755-12.381-2.049-0.246 0.0855-0.7395 0.684-0.789 0.174-0.063-7.4145-0.0165-14.83-0.024-22.244m137.18 18.801c-3.1965 0.276-6.4065 1.611-8.52 4.0875-4.809 5.8155-5.802 13.869-5.5065 21.172-1.5315-0.042-3.459-0.519-4.728 0.0915-0.0555 21.708 6.7335 43.659 20.15 60.872 0.306 0.5295 0.843 0.138 1.026-0.246 12.09-17.06 18-38.23 17.45-59.067 0.018-4.7325-0.8805-9.4515-2.4255-13.917-1.4805-4.155-3.6525-8.3865-7.458-10.845-2.9115-1.947-6.5325-2.613-9.987-2.148z" filter="url(#i)" fill="#83fb00"/>
<path d="m400.04 636.86c11.818-0.603 24.564 2.6535 32.891 11.504 9.7365 9.996 12.16 25.062 10.461 38.444-1.512 7.9995-4.428 15.638-7.176 23.27-3.591 8.919-7.0575 17.892-10.989 26.669-5.2005 11.81-7.008 25.826-1.9725 37.99 2.1225 4.6215 5.937 9.039 11.242 9.7695 5.391 0.9 10.857-0.6585 15.692-2.997 0.414-0.237 1.2255-0.789 1.425-0.0225 2.34 7.0785 5.232 14.019 7.299 21.162-8.787 2.0235-18.138 3.1875-26.924 0.5565-8.6355-2.4105-16.11-8.5485-20.253-16.494-7.842-15.525-5.937-34.378 0.732-49.976 7.41-14.87 15.003-29.807 19.517-45.884 2.538-9.246 1.7295-19.473-2.7375-28.002-2.1225-3.8115-5.169-7.1895-9.0555-9.243-5.7195-3.1425-12.518-3.6765-18.909-3.201-6.9465 0.5565-13.754 3.4845-18.564 8.5845-6.6345 7.59-9.2265 18.85-5.5935 28.383 3.0225 8.6775 8.37 16.281 12.118 24.63 2.823 6.0765 4.4876 12.375 6.4395 19.035 2.4559 12.188 1.9725 26.224-7.3455 34.818-7.56 7.683-19.374 10.785-29.772 8.0265-8.7225-2.1885-16.378-8.2725-20.475-16.275-5.6085-10.395-4.5795-24.016 2.6325-33.386 7.2285-10.062 20.769-15.315 32.871-12.156 0.4965 0.174 0.711-0.3495 0.372-0.6825-5.2965-7.9815-10.792-16.203-12.841-25.71-3.108-16.362 4.3905-34.43 18.781-43 6.0135-3.7215 13.114-5.4435 20.134-5.8125m-38.238 87.453c-5.757 0.483-11.218 3.8235-14.109 8.847-3.2565 5.3625-3.513 12.392-0.7815 18.024 3.174 6.897 11.028 11.178 18.54 10.24 5.5365-0.477 10.743-3.636 13.744-8.3055 3.3495-4.9335 3.9375-11.554 1.7565-17.074-2.829-7.617-11.05-12.72-19.15-11.732z" filter="url(#j)" fill="#fcff00"/>
<path d="m-199.96 636.86c11.818-0.603 24.564 2.6535 32.891 11.504 9.7365 9.996 12.16 25.062 10.461 38.444-1.512 7.9995-4.428 15.638-7.176 23.27-3.591 8.919-7.0575 17.892-10.989 26.669-5.2005 11.81-7.008 25.826-1.9725 37.99 2.1225 4.6215 5.937 9.039 11.242 9.7695 5.391 0.9 10.857-0.6585 15.692-2.997 0.414-0.237 1.2255-0.789 1.425-0.0225 2.34 7.0785 5.232 14.019 7.299 21.162-8.787 2.0235-18.138 3.1875-26.924 0.5565-8.6355-2.4105-16.11-8.5485-20.253-16.494-7.842-15.525-5.937-34.378 0.732-49.976 7.41-14.87 15.003-29.807 19.517-45.884 2.538-9.246 1.7295-19.473-2.7375-28.002-2.1225-3.8115-5.169-7.1895-9.0555-9.243-5.7195-3.1425-12.518-3.6765-18.909-3.201-6.9465 0.5565-13.754 3.4845-18.564 8.5845-6.6345 7.59-9.2265 18.85-5.5935 28.383 3.0225 8.6775 8.37 16.281 12.118 24.63 2.823 6.0765 4.4876 12.375 6.4395 19.035 2.4559 12.188 1.9725 26.224-7.3455 34.818-7.56 7.683-19.374 10.785-29.772 8.0265-8.7225-2.1885-16.378-8.2725-20.475-16.275-5.6085-10.395-4.5795-24.016 2.6325-33.386 7.2285-10.062 20.769-15.315 32.871-12.156 0.4965 0.174 0.711-0.3495 0.372-0.6825-5.2965-7.9815-10.792-16.203-12.842-25.71-3.108-16.362 4.3905-34.43 18.782-43 6.0135-3.7215 13.114-5.4435 20.134-5.8125m-38.238 87.453c-5.757 0.483-11.218 3.8235-14.109 8.847-3.2565 5.3625-3.513 12.392-0.7815 18.024 3.174 6.897 11.028 11.178 18.54 10.24 5.5365-0.477 10.743-3.636 13.744-8.3055 3.3495-4.9335 3.9375-11.554 1.7565-17.074-2.829-7.617-11.05-12.72-19.15-11.732z" filter="url(#k)" fill="#fcff00"/>
<path d="m117.47 362.35c0.099 0.0106 0.297 0.033 0.3945 0.045 0.0765 5.7555 0.0165 11.516 0.0315 17.274 0.006 0.759-1.215 0.024-1.554 0.2175-8.391-0.4575-16.461 3.339-22.614 8.808-9.675 8.8965-15.468 21.662-16.78 34.644 7.593-0.426 15.204-1.0215 22.706-2.3325-0.129 5.877-0.015 11.76-0.0585 17.64-7.683-1.0695-15.428-2.019-23.181-2.1945 0.5385 11.718 5.535 23.31 13.875 31.474 5.8245 5.667 13.056 9.8535 20.853 12.14 0.4245-0.0945 0.978 0.39 0.6885 0.8115-2.196 5.238-4.4205 10.467-6.6645 15.682-8.712-4.659-16.912-10.504-23.478-17.934-10.654-11.602-16.456-27.124-17.258-42.766-6.492-0.0795-13.214-0.4395-19.546 0.129-1.7625 16.844-8.3055 33.654-20.378 45.783-8.5635 8.7525-20.348 14.856-32.75 15.524-0.009-5.8425-0.0255-11.685 0.006-17.523 7.728 0.78 15.444-2.0175 21.586-6.6075 11.296-8.7435 17.89-22.719 19.419-36.702-7.5885 0.0975-15.198 1.137-22.684 2.1315-0.078-5.8215-0.0255-11.644-0.0255-17.464 7.7055 0.972 15.45 1.971 23.224 2.211-0.561-11.472-5.256-22.794-13.353-31.006-6.117-6.1815-13.934-10.641-22.316-12.927 2.0295-4.848 4.107-9.6735 6.168-14.511 0.2955-0.474 0.2925-1.482 1.014-1.536 15.069 7.8195 28.23 20.152 34.906 36.048 3.351 7.734 4.9875 16.108 5.5155 24.495 6.501-0.0165 13.106 0.324 19.564-0.141 1.8375-17.577 8.9895-35.444 22.264-47.594 8.211-7.842 19.101-12.792 30.423-13.818z" filter="url(#l)" fill="#bb2faa"/>
<path d="m190.36 371.51c9.8415 3.39 19.617 9.0465 24.752 18.459 0.213 0.6135 0.834-0.045 1.074-0.321 5.5365-7.401 14.786-11.636 23.988-11.403 8.4855-0.4365 17.325 2.8245 22.768 9.4965 0.6525 0.993 1.5105-0.4185 1.9365-0.9915 8.8755-9.978 24.398-11.824 36.278-6.6285 7.3575 3.321 12.495 10.256 14.868 17.834 3.6 11.798 2.472 24.543-0.801 36.29-3.3285 13.407-7.9695 26.836-7.191 40.848 0.465 9.6885 6.0495 19.578 15.328 23.224 7.4835 3.1245 16.539 0.264 21.434-6.033 0.21-0.663-0.0345-0.9495-0.735-0.858-5.2935-0.969-10.413-2.7315-15.255-5.0535-0.783-0.129 0.0495-0.309 0.2565-0.3585 15.014-2.136 29.876-7.4625 41.937-16.716-1.7685 14.958 2.2575 29.838 7.602 43.68 0.144 0.3 0.6165 1.158-0.0615 0.9945-4.938-3.429-9.6705-7.248-13.548-11.872-0.3465-0.54-1.0335-0.1215-1.2735 0.2835-5.4435 6.117-12.346 11.142-20.258 13.497-10.304 3.36-21.994 1.602-30.904-4.5075-6.096-3.9795-10.844-9.8055-13.953-16.347-3.7245-7.665-4.569-16.437-3.984-24.842 1.023-12.831 5.373-25.044 8.847-37.341 3.2895-11.392 5.3775-24.566-0.303-35.528-3.384-6.894-12.375-8.5575-19.071-6.0525-3.078 0.969-5.5905 3.417-6.81 6.3885-2.064 5.5815-1.6815 11.92 0.5085 17.402-2.0985 0.0195-4.488 0.1575-6.3855 0.6105 0.42 14.014 1.968 28.017 4.452 41.822-7.14-0.087-14.278-0.006-21.416-0.0405 2.4105-13.374 3.7785-27.015 4.4085-40.542-1.965-0.5535-4.362 0.4245-6.468 0.276 0.471-6.1155 2.634-11.968 4.4505-17.768-1.527-5.178-6.465-9.057-11.814-9.6435-4.95-0.7845-10.684-0.1635-14.418 3.504-5.229 5.904-4.4835 15.039-1.446 21.74-1.9215-0.0345-3.8085 0.4605-5.7285 0.4245-0.5415-0.069-0.903 0.645-0.663 1.116 0.3345 13.749 1.5495 27.588 5.1 40.918-7.14-0.039-14.28-0.027-21.418-0.007 3.495-13.272 4.809-27.084 5.01-40.749-2.223-0.168-4.4445 0.4335-6.663 0.5175 0.747-4.401 2.136-8.6805 3.546-12.915 0.3105-0.6885 0.7335-1.5195 0.1725-2.196-1.752-3.8685-4.9095-7.4955-9.2655-8.292-3.117-0.873-6.2475 0.5865-8.865 1.926-0.015-8.082 0.024-16.164-0.018-24.244z" filter="url(#m)" fill="#00e2ca"/>
<path d="m241.78 486.14c0.195-0.1185 0.2505-0.0675 0.165 0.153-8.4105 22.286-16.84 44.568-25.254 66.852-0.3 0.48-0.432-0.696-0.501-0.6285-1.8075-6.0195-3.66-12.026-5.5035-18.032-0.183-0.528-0.6855-0.0195-0.9675 0.141-19.179 16.545-37.185 34.432-54.506 52.896-0.4425 0.6285-1.407 1.059-1.233 1.9425 10.095 9.7965 21.014 19.908 35.012 23.516 0.018 0.384-0.3015 0.6345-0.5385 0.8835-5.1135 5.439-10.164 10.94-15.276 16.378-0.1785 0.3435-0.591 0.603-0.9075 0.258-4.53-12.928-14.482-22.702-24.423-31.53-0.645-0.6015-1.575-1.8225-2.475-0.768-9.2025 10.272-17.626 21.464-23.469 34.014-0.3105 0.465-0.462 2.1945-1.3725 1.578-5.8035-5.412-11.619-10.79-17.409-16.208 0.2085-0.609 1.056-0.6045 1.5255-0.978 12.276-6.7335 22.875-16.072 32.558-26.098 0.684-0.6705-0.657-1.266-0.9765-1.677-10.011-8.502-20.448-16.56-31.71-23.343-0.183-0.1785-0.6525-0.2955-0.477-0.6165 4.6935-5.0655 9.3945-10.13 14.098-15.188 0.273-0.378 0.5865-0.033 0.696 0.2805 7.665 10.86 16.536 20.796 25.84 30.255 0.4155 0.3975 0.819 1.0275 1.524 0.747 17.451-18.884 34.29-38.39 49.6-59.061 0.144-0.252 0.771-0.9045 0.1605-1.0545-6.3075-1.677-13.179-2.7345-19.197-4.6095 21.7-9.9765 43.352-20.05 65.016-30.104z" filter="url(#n)" fill="#063daa"/>
<path d="m52.788 623.06c-0.95047 0.002-1.9009 0.0362-2.8495 0.10266-16.44 0.693-32.033 11.494-38.126 26.821-4.8345 11.654-3.639 26.462 5.25 35.88 0.2685 0.4785 1.626 1.0846 1.1175 1.6666-13.016-2.88-25.952-6.2776-38.985-9.0842 0.009 6.09 0.01495 12.182-0.003 18.273 16.904-0.7665 33.819-1.3471 50.712-2.1136-1.1955-3.264-2.931-6.426-4.2195-9.702-5.13-7.446-5.5874-17.535-2.1959-25.796 5.2095-13.418 20.635-21.556 34.684-18.7 9.4245 1.536 18.018 7.6978 22.306 16.243 4.53 8.4825 4.5691 19.551-0.7064 27.698-1.581 3.351-3.2686 6.8176-4.5391 10.241 16.876 0.8415 33.771 1.3935 50.655 2.13 0.045-6.087-0.0223-12.174 0.0347-18.259-12.996 2.7975-25.9 6.156-38.88 9.078-0.4035 0.0855-0.30605-0.4922-0.07055-0.6347 4.773-4.4025 7.638-10.572 8.7555-16.906 2.0625-12.724-3.0511-26.079-12.449-34.744-8.0659-7.8101-19.277-12.218-30.492-12.193zm-73.561 87.775c-0.0705 6.435 0.0121 12.876-0.0389 19.314 11.632-1.2735 23.325-1.9964 35.01-2.4914 37.228-1.2885 74.584-1.1324 111.7 2.5006 0-6.4395 0.0179-12.879-0.0106-19.316-13.776 1.221-27.609 2.1931-41.439 2.6236-35.078 1.005-70.26 0.6479-105.22-2.6311z" filter="url(#o)" fill="#00c403"/>
<path d="m422.51 269.95c-0.17059 0.0153-0.22537 0.2587-0.30703 0.40616-5.118 10.014-15.668 17.781-27.258 17.297-10.678-0.03-20.3-6.864-25.491-15.919-0.4305-0.3825-0.61785-1.7701-1.3858-1.3861-2.8005 4.839-6.3032 9.4605-11.105 12.465-8.3235 5.871-20.004 6.4666-28.896 1.503-6.207-2.9445-10.596-8.9355-14.057-14.302-2.8515 5.274-6.7814 10.093-11.934 13.261-8.646 5.6745-20.53 5.8665-29.337 0.42-5.457-3.042-9.5176-8.061-12.536-13.432-0.1515-0.348-0.63441-0.1229-0.60891 0.2161-2.9325 6.171-1.8916 13.563 1.1789 19.485 5.4825 10.461 17.79 16.707 29.474 15.231 9.903-0.939 19.243-7.2028 23.517-16.236 0.108-0.2625 0.45755-0.3556 0.69305-0.2011 3.1275 7.0605 9.4934 12.435 16.738 14.928 13.62 5.1285 30.62-1.3904 36.731-14.716 0.0855-0.4695 0.7589-0.3 0.8489 0.09 4.467 9.468 14.439 15.739 24.972 16.288 10.594 0.6435 21.474-4.6904 26.994-13.806 4.0125-6.3 5.2754-14.72 1.9064-21.561-0.0534-0.0248-0.0989-0.0333-0.13828-0.0298zm-162.57 44.242c-0.0301 0.003-0.0629 0.013-0.0987 0.0333-5.5935 11.678 1.5481 26.05 12.554 31.613 13.892 8.3085 34.209 2.529 41.146-12.258 0.001-0.597 0.9391-0.729 1.0786-0.1275 5.523 11.596 19.359 18.186 31.896 15.708 9.1425-1.4925 17.427-7.5392 21.462-15.909 0.6735-0.597 0.94055 0.3152 1.143 0.7697 3.7005 7.3455 10.86 12.645 18.769 14.68 9.3435 2.4795 19.773 0.0541 27.111-6.2039 7.8-6.525 12.315-18.18 7.8256-27.832-0.3615-0.828-0.80555 0.38555-1.038 0.72305-5.214 9.669-15.576 16.976-26.841 16.515-11.448 0.036-21.448-7.8616-26.554-17.709-4.179 7.422-10.596 14.084-18.993 16.557-9.3615 2.943-20.089 0.32995-27.252-6.3106-3.183-2.7885-5.7044-6.2686-7.7534-9.9511-0.18-0.1245-0.60605-0.32835-0.59555 0.13665-3.8355 7.203-10.148 13.342-18.002 15.922-5.1135 1.7205-10.701 1.779-15.912 0.4575-8.5095-2.2455-15.476-8.625-19.553-16.298-0.0997-0.15882-0.18228-0.53367-0.39328-0.51634z" filter="url(#p)" fill="#710cb3"/>
<path d="m289.96 538.31c-0.34284 0-0.68584 0.003-1.0292 0.008-19.866 0.2895-39.786 9.1635-52.166 24.892-6.618 8.235-10.902 18.566-10.826 29.229-1.161 11.095 5.2486 22.455 15.359 27.147 9.9945 5.13 22.996 2.8514 30.912-5.0341 5.1315-5.0205 8.3985-12.07 8.295-19.315 0.285-8.9055-4.4115-17.637-11.667-22.694-6.753-4.8315-15.768-6.303-23.694-3.783-0.444 0.2325-0.89559-0.0645-0.50109-0.5025 10.038-11.112 24.968-17.265 39.828-17.641 20.943-0.6855 40.95 9.4125 56.361 22.586 3.3765-3.771 6.3317-8.07 9.5672-12.026 0.4635-0.6225-0.6151-0.93014-0.9736-1.2766-17.236-12.518-37.867-21.617-59.466-21.59zm37.626 38.594c-0.67325 0.004-1.3478 0.0356-2.0224 0.0961-11.199 0.684-21.372 8.9446-24.374 19.731-3.123 10.071 0.49345 21.651 8.547 28.365 6.987 6.1365 17.289 8.2891 26.109 5.2711 0.354 0.33 0.004 0.8055-0.21305 1.11-10.924 11.619-27.122 17.749-42.99 17.169-19.792-0.486-38.147-10.089-52.949-22.668-3.3045 4.0335-6.4664 8.6221-9.8039 12.384 16.958 12.669 37.271 21.976 58.724 22.572 15.231 0.327 30.849-4.1326 43.041-13.191 11.072-8.0985 20.085-19.901 22.44-33.656 0.981-7.3335 1.3844-15.276-2.178-22.026-4.455-9.045-14.232-15.219-24.331-15.158zm-71.562 2.5983c4.9698 0.056 9.8634 2.7592 12.574 6.9284 4.629 6.7335 2.889 17.018-3.93 21.63-5.856 4.3035-14.708 3.7125-19.886-1.41-4.3755-4.041-6.1006-10.773-4.0756-16.398 1.809-5.937 7.5917-10.35 13.775-10.681 0.51342-0.0522 1.0283-0.0747 1.5424-0.0689zm69.125 8.8463c3.0193 0.0201 6.0817 0.83474 8.561 2.5762 5.967 3.7335 8.5995 11.809 6.15 18.384-1.371 3.7815-4.155 7.113-7.8406 8.805-6.7395 3.567-15.993 1.1504-20.013-5.3386-3.927-5.82-3.2446-14.185 1.4534-19.369 2.5635-2.8305 6.2235-4.629 10.02-4.9875 0.55219-0.0499 1.1098-0.0733 1.669-0.0696z" filter="url(#q)" fill="#ffaa01"/>
<path d="m236.02 672.21c4.644 2.7165 9.2805 5.5095 14.062 7.9785-6.471 16.964-6.4605 36.626 0.7695 53.372 0.1065 0.6015 1.0515 0.8595 1.2825 0.216 6.2805-11.92 15.454-22.776 27.621-28.935 3.594-1.6155 7.347-3.003 11.296-3.399 10.581-1.5705 21.584 3.126 28.305 11.322 6.1875 6.9975 9.408 16.683 8.0955 25.983-2.328 18.027-20.33 31.658-38.222 30.39-11.163-0.837-22.174-4.5435-31.38-10.946-0.33-0.057-1.0155-0.1605-0.585 0.6525-0.9 12.22 2.733 24.826 10.406 34.412-5.2815 3.5475-10.995 6.7605-16.467 10.017-8.2215-16.654-10.197-36.518-4.9905-54.428 0.429-0.834 0.216-1.62-0.4665-2.226-8.2065-10.34-12.844-23.205-14.296-36.256 0.348-1.0935-0.843-0.954-1.071-0.285-8.28 13.314-16.64 26.628-24.04 40.454-5.034 9.201-9.5235 18.864-14.462 27.999-0.264-7.8525 0.351-16.28 0.4035-24.358 0.4095-12.248-1.1985-25.068-7.2675-35.913-1.7865-3.006-4.0245-5.739-6.702-7.998-6.24-4.95-14.684-6.2265-22.424-5.3715-0.057-6.492-0.4305-12.984-0.4035-19.478 11.318-0.048 22.976 3.2955 31.644 10.78 10.54 9.0105 15.524 22.923 16.644 36.429-0.027 0.423 0.231 0.7995 0.687 0.615 9.0645-16.138 17.552-32.642 25.839-49.197 2.1873-4.4274 3.4142-8.261 5.721-11.829m52.582 42.376c-8.403 0.7665-15.417 6.495-20.142 13.161-3.852 5.319-6.7995 11.283-8.6955 17.568-0.2415 0.6255 0.4935 0.927 0.858 1.287 5.826 5.0325 13.422 7.6965 21.042 8.208 5.199 0.2085 10.656 0.378 15.582-1.578 7.0125-2.5395 12.724-8.8485 13.852-16.305 0.6-4.5885-1.0095-9.15-3.699-12.81-4.0575-6.1275-11.229-10.626-18.798-9.531z" filter="url(#r)" fill="#4b0ab3"/>
</g>
</g>
</pattern>
</defs>
<g transform="translate(160.36 355.65)">
<rect height="1200" width="1800" y="-355.65" x="-160.36" fill="url(#a)"/>
</g>
</svg>
