<?xml version="1.0" encoding="UTF-8" standalone="no"?>
<!-- Created with Inkscape (http://www.inkscape.org/) -->
<svg xmlns:inkscape="http://www.inkscape.org/namespaces/inkscape" xmlns:rdf="http://www.w3.org/1999/02/22-rdf-syntax-ns#" xmlns="http://www.w3.org/2000/svg" xmlns:cc="http://web.resource.org/cc/" xmlns:dc="http://purl.org/dc/elements/1.1/" xmlns:svg="http://www.w3.org/2000/svg" xmlns:sodipodi="http://sodipodi.sourceforge.net/DTD/sodipodi-0.dtd" xmlns:ns1="http://sozi.baierouge.fr" xmlns:xlink="http://www.w3.org/1999/xlink" id="svg2" viewBox="0 0 744.09 1052.4" version="1.0" inkscape:version="0.91 r13725">
  <g id="layer1">
    <g id="g9396" style="stroke:#84061e;fill:#6ad500" transform="translate(-62.857 -42.857)">
      <path id="path9410" style="stroke:#84061e;fill:#6ad500" d="m355.79 1016c-3.28-1.1-5.97-4.6-5.97-7.9s-5.35-10.82-11.9-16.75c-9.98-9.04-11.69-14.7-10.55-35.04 0.75-13.35 3.52-25.63 6.16-27.3 2.63-1.66 6.26-8.83 8.06-15.92 1.91-7.53 7.93-14.26 14.48-16.19 6.16-1.81 14.96-6.47 19.56-10.36 4.85-4.09 12.54-5.8 18.27-4.04 5.44 1.67 15.64 1.64 22.65-0.06 12.19-2.95 12.44-3.66 5.58-16.45-4.11-7.66-13.09-14.78-21.05-16.68-22.35-5.35-36.3-21.1-36.3-40.97 0-9.6-3.3-21.66-7.32-26.79-4.03-5.13-7.39-19.13-7.48-31.12-0.13-18.75-2.12-22.9-14.29-29.83-17.09-9.74-39.16-39.4-45.72-61.45-5.02-16.87 0.02-43.79 12.57-67.21 5.92-11.05 5.44-12.59-5.51-17.57-10.79-4.91-12-4.37-12 5.3 0 5.92-8.42 19.56-18.72 30.32-14.76 15.41-23.52 20.24-41.47 22.83-32.18 4.66-60.47-3.96-78.69-23.97-34.82-38.24-29.86-89.8 12.24-127.22l23.01-20.44-10.48-13.67c-5.77-7.51-10.48-15.67-10.48-18.13 0-2.45-8.25-5.95-18.34-7.78-23.49-4.25-49.613-29.13-53.943-51.38-10.137-52.1 42.463-110.76 92.413-103.06 10.38 1.6 22.14 4.12 26.13 5.6 6.08 2.25 6.86-2.82 4.77-30.99-4.58-61.68 14.96-104.09 52.99-115.08 28.38-8.2 52.95 1.9 63.43 26.06 4.18 9.66 6.31 20.81 4.73 24.78-2.24 5.63-0.38 6.5 8.41 3.93 56.26-16.44 66.4-17.87 91.91-12.93 31.01 6.01 69.66 24.17 84.85 39.89 29.06 30.05 35.42 86.84 13.73 122.52-14.87 24.46-44.8 41.28-72.79 40.91-29.19-0.39-62.39-16.81-74.73-36.97-9.5-15.54-11.49-16.65-18.18-10.2-6.43 6.2-6.59 10.39-1.14 29.18 3.51 12.07 8.86 21.94 11.89 21.94 8.72 0 57.98 25.16 57.98 29.62 0 7.66 10.64 3.95 28.95-10.1 22.44-17.21 39.35-21.65 57.35-15.05 16.01 5.86 23.82 22.31 17.85 37.57-3.06 7.83-2.4 10.81 2.39 10.81 8.48 0 38.11-19.38 44.29-28.97 3.5-5.45 0.87-11.34-10.15-22.71-8.18-8.45-16.06-21.35-17.52-28.68-5.38-27.17 19.65-59.49 51.27-66.19 19.03-4.03 56.15 11.76 67.74 28.82 14.24 20.96 15.12 59.36 1.92 84.46-16.42 31.25-37.54 55.25-54.61 62.07-18.14 7.24-18.84 11.24-3.2 18.11 35.18 15.45 67.34 60.38 60.91 85.08-1.79 6.86-10.47 16.71-19.31 21.91-14.8 8.7-15.15 9.44-4.39 9.46 14.38 0.02 34.82 14.99 44.15 32.33 10.05 18.67 4.14 45.72-12.53 57.37-22.39 15.63-45.47 23.05-52.04 16.72-3.14-3.03-10.44-5.5-16.24-5.5-14.25 0-38.57-24.89-34.44-35.26 6.05-15.2-2.77-7.92-9.66 7.98-9.73 22.45-35.62 49.52-61.18 63.96-26.13 14.76-27.86 21.33-4.66 17.7 36.68-5.74 58.47 44.2 31.02 71.1-6.43 6.3-13.06 19.8-14.72 29.99-4.29 26.32-15.51 40.31-37.37 46.62-16.93 4.89-19.04 7.23-19.46 21.63-0.26 8.89 2.67 18.66 6.5 21.73 9.1 7.29 8.85 16.15-0.66 23.76-4.2 3.37-6.75 8.5-5.66 11.4 2.93 7.8-5.95 22.11-13.71 22.11-3.7 0-10.32 5.24-14.7 11.74-7.32 10.8-10.94 11.7-44.44 11.1-20.06-0.3-39.16-1.5-42.45-2.5zm52.7-67.49c1.08-3.14-1.58-5.71-5.92-5.71s-7.89 3.42-7.89 7.61c0 8.48 10.73 7.01 13.81-1.9zm-47.11-266.38c-8.42-8.59-16.54-18.86-18.03-22.83-2.21-5.89-2.78-5.73-3.1 0.84-0.46 9.33 22.8 37.61 30.93 37.61 3.04 0-1.37-7.03-9.8-15.62zm105.98-13.52c16.79-15.1 30.88-41.79 34.92-66.14l3.19-19.28-19.61 2.54c-28.68 3.71-46.47-12.16-49.7-44.31-3.46-34.48-5.44-39.07-12.96-30.02-7.67 9.22-35.11 18.17-55.74 18.17-11.44 0-18.56 3.65-25.96 13.3l-10.19 13.29 31.3-0.08c36.82-0.1 54.2 9.5 68.89 38.02 9.23 17.91 9.22 18.69-0.1 40.53-8.39 19.64-12.31 23.17-33.22 29.89-22.53 7.24-23.14 7.89-12.36 13.15 6.25 3.05 24.22 4.89 39.94 4.1 22.11-1.12 31.54-4.1 41.6-13.16zm153.05-73.83l18.89-9.28-12.07-9.94c-6.63-5.48-19.39-20.76-28.35-33.98-18.92-27.93-38.49-49.32-51.14-55.94-5.49-2.87-1.96 4.67 9.22 19.67 21.99 29.51 37.05 66.15 37.15 90.38 0.04 9.88 1.73 15.81 3.74 13.16 2.01-2.64 12.16-8.97 22.56-14.07zm-456.61-11.65c-8.7-12.83-16.61-22.71-17.57-21.95-0.95 0.76 0.95 9.24 4.24 18.85 4.96 14.49 11 20.06 28.28 26.12 0.48 0.16-6.25-10.2-14.95-23.02zm96.31-5.34c0-17.74-15.49-27.94-25.23-16.62-5.3 6.15-4.34 9.29 5.7 18.83 16 15.2 19.53 14.8 19.53-2.21zm-43.05-26.6c1.72-4.32 0.04-7.21-4.2-7.21-3.89 0-9.36-3.78-12.15-8.4-4.59-7.6-5.1-7.64-5.23-0.4-0.39 20.37 15.23 31.96 21.58 16.01zm35.54-79.23c1.75-2.72-0.25-3.52-4.69-1.88-8.63 3.19-10.21 6.63-3.04 6.63 2.58 0 6.06-2.13 7.73-4.75zm-107.12-78.4c-11.88-3.91-20.22-11.1-26.15-22.56-6.88-13.27-8.72-14.62-8.72-6.43-0.01 12.79 26.76 35.36 41.49 34.99 7.77-0.19 5.91-1.89-6.62-6zm70.11-20.54c1.56-10.36 4.43-23.45 6.39-29.09 2.9-8.37 1.16-10.83-9.48-13.4-7.17-1.74-17.75-1.72-23.52 0.05-9.07 2.77-9.45 3.93-2.88 8.6 13.24 9.41 20.03 26.8 16.51 42.29-2.56 11.2-1.75 14.18 3.4 12.54 3.72-1.19 8.03-10.64 9.58-20.99zm-35.22 0.98c0-6.29-3.47-14.21-7.72-17.61-6.39-5.11-9.19-4.76-16.2 2.04-7.98 7.75-7.75 8.77 3.99 17.5 16.35 12.17 19.93 11.82 19.93-1.93zm240.53-78.97c4.78-0.89 10.05 1.79 11.71 5.95 4.26 10.71 15.62 9.38 19.46-2.28 6.8-20.64-20.07-31.75-38.31-15.84-5.9 5.15-8.9 14.03-8.52 25.22 0.58 17.11 0.62 17.14 3.77 2.92 1.83-8.21 6.91-15.05 11.89-15.97zm102.09-2.95c3.38-28.93-9.58-61.77-30.32-76.83-32.78-23.79-86.85-33.16-123.41-21.38-26.83 8.65-28.46 14-1.93 6.3 28.3-8.21 52.69-8.79 78.57-1.86 20.04 5.37 50.12 28.03 59.49 44.82 9.04 16.2 13.01 45.44 8.69 63.93-2.76 11.77-2.39 15.52 1.16 12.09 2.84-2.73 6.33-14.91 7.75-27.07zm-122.46-25.14c5.03-4.38 17.54-9.42 27.81-11.19l18.67-3.23-21.6-5.92c-21.29-5.83-44.28-3.88-62.44 5.31-8.58 4.34-8.21 5.36 4.98 13.49 18.06 11.14 21.4 11.3 32.58 1.54zm221.12 676.18c-1.58-2.47-10.47-3.3-19.75-1.85-13.41 2.1-17.95 0.69-22.14-6.87-2.9-5.22-12.09-12.22-20.42-15.55-15.84-6.32-19.23-17.38-10.26-33.52 3.54-6.39 2.86-10.4-2.5-14.69-9.48-7.59-9.43-21.11 0.11-28.74 4.11-3.29 7.47-9.89 7.47-14.66 0-12.14 14.68-24.98 25.44-22.26 5.65 1.42 11.78-1.83 16.46-8.72 6.4-9.42 11.34-10.88 34.5-10.19 14.86 0.44 30.11 3.26 33.88 6.26 3.76 3.01 13.57 6.2 21.8 7.1 11.5 1.25 15.35 4.35 16.68 13.45 0.95 6.5 4.98 14.11 8.95 16.91 9.73 6.86 6.21 64.37-4.39 71.84-4.03 2.84-8.93 10.03-10.89 15.97-3.8 11.55-20.21 22.51-27.33 18.27-2.38-1.42-7.09 0.65-10.48 4.58-6.8 7.9-32.59 9.75-37.13 2.67zm52.13-33.95c0-2.65-2.38-4.81-5.28-4.81s-3.89 2.16-2.2 4.81c1.7 2.64 4.07 4.8 5.28 4.8s2.2-2.16 2.2-4.8zm-89.71-16.82c6.73-7.83 5.12-8.8-7.07-4.29-4.34 1.6-7.88 4.84-7.88 7.2 0 6.65 8.07 5.08 14.95-2.91zm59.81-21.78c0-11.33-13.19-17.89-20.94-10.42-7.75 7.48-0.94 20.19 10.81 20.19 6.85 0 10.13-3.16 10.13-9.77zm-63.86-12.74c-3.6-1.39-7.9-1.21-9.55 0.38-1.66 1.6 1.28 2.73 6.54 2.53 5.8-0.23 6.98-1.37 3.01-2.91zm36.96-48.27c-1.65-1.6-2.83 1.24-2.61 6.31 0.23 5.6 1.42 6.73 3.01 2.9 1.44-3.47 1.26-7.61-0.4-9.21z"/>
      <path id="path9408" style="stroke:#84061e;fill:#6ad500" d="m388.74 1014.5c-4.5-2.5-13.1-3.9-19.1-3.2-6.62 0.7-13.17-2.6-16.62-8.4-3.13-5.21-9.33-12.17-13.78-15.43-9.25-6.77-9.83-44.46-0.85-55.11 2.96-3.51 6.2-10.65 7.2-15.87 1.01-5.22 6.3-11.7 11.75-14.41 5.46-2.71 13.29-7.07 17.4-9.69 11.96-7.62 51.26-6.52 61.3 1.72 4.92 4.04 12.55 7.86 16.94 8.48 10.76 1.52 15.8 10.37 12.61 22.13-1.64 6.03 0.47 11.36 5.59 14.12 10.27 5.54 10.56 15.34 0.68 23.23-4.14 3.32-6.95 9.41-6.23 13.54 0.73 4.12-4.2 10.21-10.93 13.51-6.74 3.31-14.05 10.7-16.25 16.48-2.96 7.7-6.79 9.7-14.72 7.7-5.9-1.5-14.35-0.9-18.77 1.4-4.61 2.4-11.54 2.3-16.22-0.2zm10.92-18.84c0-2.65-2.24-4.81-4.98-4.81s-4.98 2.16-4.98 4.81c0 2.64 2.24 4.84 4.98 4.84s4.98-2.2 4.98-4.84zm27.42-4.81c-1.7-2.64-5.33-4.8-8.07-4.8s-3.6 2.16-1.9 4.8c1.69 2.64 5.32 4.81 8.06 4.81s3.6-2.17 1.91-4.81zm22.42-14.41c0-2.65-2.37-4.81-5.28-4.81-2.9 0-3.89 2.16-2.19 4.81 1.69 2.64 4.07 4.8 5.28 4.8 1.2 0 2.19-2.16 2.19-4.8zm-37.38-28.83c0-10.43-19.44-8.99-21.55 1.59-1.37 6.82 0.86 8.44 9.9 7.2 6.41-0.87 11.65-4.83 11.65-8.79zm41.28-28.09c1.43-4.14-0.97-5.87-6.65-4.81-4.88 0.92-9.89 4.57-11.11 8.13-1.43 4.13 0.96 5.87 6.65 4.8 4.88-0.91 9.88-4.57 11.11-8.12zm-83.64-0.74c0-2.65-2.24-4.81-4.98-4.81s-4.99 2.16-4.99 4.81c0 2.64 2.25 4.8 4.99 4.8s4.98-2.16 4.98-4.8zm54.82-9.61c0-2.65-2.37-4.81-5.27-4.81-2.91 0-3.9 2.16-2.2 4.81 1.69 2.64 4.07 4.8 5.28 4.8 1.2 0 2.19-2.16 2.19-4.8zm202.67 31.44c-5.55-4.05-15.46-5.69-25.15-4.18-13.61 2.13-16.86 0.65-21.89-9.98-3.56-7.54-9.95-12.48-16.13-12.48-13.56 0-17.82-12.19-9.5-27.18 5.9-10.63 5.68-12.68-1.83-16.73-11.68-6.3-10.77-21.88 1.65-28.29 6.89-3.55 9.25-8.18 7.26-14.23-3.46-10.52 9.23-19.19 23.03-15.71 6.39 1.61 10.58-1.28 13.83-9.51 4.14-10.5 7.36-11.73 28.75-10.99 13.24 0.46 29.15 3.47 35.35 6.68s14.05 5.5 17.44 5.07c14.06-1.74 18.64 0.93 18.64 10.88 0 5.77 4.87 15.5 10.82 21.6 9.46 9.71 10.02 12.54 4.46 22.56-3.5 6.3-4.97 15.68-3.28 20.84 1.99 6.04-0.32 12.35-6.5 17.74-5.27 4.6-10.96 13.61-12.62 20.03-1.67 6.41-5.8 11.82-9.17 12.02-15.24 0.92-25.1 4.27-33.13 11.28-10.38 9.05-10.44 9.06-22.03 0.58zm14.13-21.03c0-9.41-9.71-8.61-11.62 0.95-1.16 5.84 0.55 8.21 4.92 6.81 3.69-1.19 6.7-4.68 6.7-7.76zm-32.39-8.3c0-3.8-2.01-6.92-4.45-6.92-5.5 0-10.86 12.47-6.97 16.22 4.36 4.2 11.42-1.54 11.42-9.3zm69.77 0.14c0-7.27-13.14-15.21-17.77-10.74-1.32 1.27-0.98 5.86 0.74 10.2 3.97 9.96 17.03 10.37 17.03 0.54zm-87.53-20.02c3.53-8.85-5.56-12.23-17.03-6.31-9.82 5.07-13.12 14.72-7.04 20.59 3.86 3.72 20.94-6.42 24.07-14.28zm49.75-9.18c11.2-4.14 9.76-19.8-2.41-26.07-17.58-9.08-32.64 9.7-18.62 23.22 6.79 6.55 9.9 6.97 21.03 2.85zm55.23-1.88c-1.7-2.65-6.18-4.81-9.97-4.81s-8.28 2.16-9.97 4.81c-1.75 2.73 2.54 4.8 9.97 4.8s11.72-2.07 9.97-4.8zm-109.63-19.26c3.96-6.17-10.04-11.51-20.27-7.72-9.99 3.69-4.49 12.56 7.79 12.56 5.16 0 10.78-2.18 12.48-4.84zm117.1-9.57c0-2.65-4.35-4.81-9.67-4.81s-11.06 2.16-12.76 4.81c-1.74 2.72 2.44 4.8 9.68 4.8 7.01 0 12.75-2.16 12.75-4.8zm-109.64-21.63c-6.83-7.93-19.94-9.77-19.94-2.8 0 4.79 8.49 9.03 19.3 9.63 5.52 0.31 5.64-1.01 0.64-6.83zm84.54 0.21c8.21-9.53 1.74-19.45-7.74-11.86-7.76 6.21-9.54 18.86-2.66 18.86 2.41 0 7.09-3.15 10.4-7zm-54.64-14.62c0-6.81-2.88-12.01-6.65-12.01-10.52 0-13.34 5.33-7.95 15.04 7.05 12.7 14.6 11.14 14.6-3.03zm29.9-2.69c0-5.13-1.98-9.32-4.4-9.32-5.12 0-10.73 17.44-6.82 21.21 4.73 4.55 11.22-2.33 11.22-11.89zm-208.02 76.13c-6.13-2.85-15.1-13.46-19.93-23.57-6.24-13.06-11.95-18.43-19.72-18.52-19.12-0.21-37.5-19.95-39.13-42.01-0.8-10.85-5.2-25.23-9.78-31.97-5.72-8.42-7.27-16.83-4.96-26.95 3.02-13.27 0.88-16.85-21.63-36.37-15.15-13.13-28.21-29.81-33.19-42.37-7.62-19.24-7.62-22.66 0.01-47.97 15.27-50.62 44.14-69.94 86.57-57.93 40.86 11.57 57.29 37.95 43.48 69.83-10.04 23.16-20.73 30.52-43.47 29.94-23.55-0.59-24.5 4.89-3.1 17.84 20.97 12.69 66.94 10.95 87.29-3.3 17.46-12.22 36.63-49.05 39.84-76.53l2.5-21.4-22.67 3c-32.67 4.32-45.79-9.21-50.55-52.13-3.89-34.93-17.75-63.36-16.15-33.11 0.77 14.52-1.03 16.95-16.58 22.46-9.6 3.4-26.98 6.35-38.63 6.55s-21.18 2.52-21.18 5.16c0 6.74-34.92 43.25-41.38 43.25-2.93 0-10.83-4.86-17.56-10.81l-12.24-10.81 3.4 13.62c3.76 15.09-0.11 32.03-7.31 32.03-2.56 0-4.65-6.89-4.65-15.31 0-9.1-4.39-19.81-10.84-26.42l-10.83-11.13h10.83c5.96 0 10.84-2.38 10.84-5.29 0-3.46-10.74-4.7-31.15-3.6-30.77 1.67-31.17 1.53-32.73-11.53-0.86-7.26-3.67-13.21-6.23-13.21-6.29 0-5.92 31.98 0.51 43.56 5.3 9.55 24.74 13.08 24.74 4.49 0-2.64 2.04-4.81 4.52-4.81 2.49 0 3.41 4.07 2.07 9.04-1.49 5.47 1.91 12.97 8.58 18.96 6.75 6.06 9.83 12.93 7.93 17.7-2.41 6.07-0.9 7.12 6.84 4.75 12.41-3.8 12.85 3.18 0.85 13.65-12.22 10.66-50.44 15.21-71.5 8.51-9.97-3.18-23.85-13.87-33.47-25.8-15.61-19.34-16.33-22-14.19-52.32 2.55-36.34 13.21-54.79 41.31-71.53l17.54-10.46-12.65-15.99c-6.96-8.79-12.65-19.38-12.65-23.52 0-4.86-4.49-7.53-12.71-7.53-16.64 0-39.53-11.64-49.29-25.06-9.876-13.6-10.195-56.15-0.58-78.33 4.55-10.5 16-22.03 31.15-31.39 24.16-14.92 34.83-15.87 73.79-6.51 9.51 2.28 9.97-0.02 9.97-49.84 0-48.85 0.88-53.5 13.63-72.08 24.78-36.1 73.53-38.5 91.75-4.52 4.73 8.81 6.58 19.96 4.76 28.71-3.3 15.93-4.18 15.91 36.89 0.73 36.18-13.37 74.76-10.52 113.84 8.4 20.89 10.12 37.22 21.95 44.07 31.93 12.01 17.49 19.45 60.14 14.58 83.59-7.54 36.38-55.61 70.67-89.26 63.67-30.9-6.43-53.7-21.12-62.63-40.35l-8.55-18.41-12.77 8.98-12.78 8.97 8.85 25.21c6.52 18.56 11.93 26.01 20.49 28.21 20.11 5.19 43.06 18.41 51.06 29.42l7.71 10.61 13.78-12.36c25.87-23.2 39.81-29.33 58.87-25.89 20.7 3.75 27.98 16.84 21.5 38.64-2.36 7.94-4.29 15.01-4.29 15.73 0 4.57 39.82-16.02 51.08-26.42 16.5-15.23 17.03-20.93 3.05-32.93-5.86-5.04-13.81-16.35-17.67-25.14-6.25-14.25-6.04-17.91 1.93-33.64 19.07-37.6 66.61-42.7 98.55-10.55 11.74 11.81 14.79 19.66 16.37 42.15 1.78 25.26 0.27 30.31-17.61 58.86-14.85 23.72-25.14 34.13-42.73 43.25-12.74 6.61-22.61 13.58-21.94 15.5 0.68 1.92 13.5 10.57 28.5 19.22 44.25 25.52 64.15 71.43 38.1 87.88-10.79 6.82-13.42 6.8-28.66-0.24-9.91-4.57-22.52-16.94-30.82-30.21-18.62-29.78-33.86-46.3-56.16-60.89-28.87-18.89-36.97-14.82-13.6 6.83 30.23 28.01 51.41 72.02 51.41 106.83 0 15.5 2.23 28.06 4.99 28.06 2.74 0 4.98-3.19 4.98-7.1 0-3.9 9.36-11.45 20.79-16.78 17.05-7.94 24.09-8.83 39.08-4.93 29.27 7.6 46.14 31.49 41.54 58.83-2.46 14.63-6.38 18.64-28.46 29.17-15.86 7.56-27.41 10.51-30.34 7.74-2.6-2.46-9.33-4.54-14.95-4.62-15.18-0.24-32.64-16.48-32.64-30.36 0-19.72-9.57-19.65-18.04 0.14-11.99 28.01-28.6 46.61-58.98 66.05-33.5 21.44-36.86 33.13-8.26 28.72 15.68-2.42 21.4-1.05 29.9 7.15 16.59 15.99 15.61 40.1-2.37 58.45-6.7 6.84-12.03 18.12-12.03 25.47 0 39.36-40.69 62.87-78.44 45.31zm30.87-22.64c1.57-2.46-1.64-5.84-7.15-7.53-5.51-1.68-13.39-6.32-17.52-10.3-4.12-3.97-7.5-4.91-7.5-2.08 0 6.35 18.21 24.37 24.62 24.37 2.58 0 5.98-2.01 7.55-4.46zm20.11-72.5c-1.72-2.69-5.22-3.64-7.77-2.12-6.91 4.12-5.62 7 3.13 7 4.27 0 6.36-2.2 4.64-4.88zm-92.15-89.07c0-1.46-6.6-4.87-14.65-7.57-28.66-9.64-52.25-54.51-40.13-76.35 5.16-9.29 4.79-9.78-3.99-5.25-12.12 6.25-17.4 29.96-10.55 47.38 6.29 16.02 23.37 34.46 36.92 39.86 11.51 4.59 32.4 5.84 32.4 1.93zm94.69-38.26c25.29-30.76 35.75-77.14 25.45-112.83-2.14-7.42-3.46 0.91-3.46 21.85 0 40.19-6.99 59.31-32.73 89.51-10.54 12.37-19.16 23.65-19.16 25.08 0 6.73 14.13-4.42 29.9-23.61zm153.36-25.45c1.09-3.14-1.58-5.71-5.92-5.71s-7.89 3.42-7.89 7.61c0 8.48 10.73 7.01 13.81-1.9zm-43.71-5.99c0-2.8-2.24-3.76-4.99-2.12-2.74 1.63-4.98 3.92-4.98 5.09 0 1.16 2.24 2.11 4.98 2.11 2.75 0 4.99-2.28 4.99-5.08zm-411.17-28.55c-1.7-2.64-6.37-4.81-10.38-4.81s-14.13-10.27-22.5-22.82c-12.92-19.38-14.89-26.32-13.05-46.01 1.96-20.95 1.43-22.46-5.56-15.72-9.65 9.3-9.76 48.91-0.19 68.17 3.75 7.53 12.43 16.44 19.28 19.78 14.9 7.26 36.76 8.22 32.4 1.41zm461.01-50.66c0-5.93-1.82-6.1-11.22-1.03-6.16 3.32-12 6.44-12.96 6.92-0.96 0.49-0.26 3.2 1.55 6.02 4.51 7.03 22.63-2.51 22.63-11.91zm-348.88-21.42c0-2.64-3.49-4.8-7.77-4.8-4.27 0-6.38 2.16-4.69 4.8 1.7 2.65 5.19 4.81 7.77 4.81s4.69-2.16 4.69-4.81zm169.38-3.6c-0.04-4.62-2.25-11.65-4.91-15.62-3.66-5.46-4.85-3.44-4.91 8.41-0.04 8.59 2.17 15.62 4.91 15.62s4.95-3.78 4.91-8.41zm-154.42-27.91c0-3.81-3.37-6.93-7.48-6.93-8.39 0-8.72 0.89-4.46 11.6 3.5 8.79 11.94 5.49 11.94-4.67zm-29.91-2.4c0-2.49-2.24-4.53-4.98-4.53s-4.99 3.38-4.99 7.5 2.25 6.15 4.99 4.52c2.74-1.64 4.98-5.01 4.98-7.49zm-24.92-9.61c0-2.49-2.24-4.53-4.98-4.53s-4.99 3.38-4.99 7.5 2.25 6.15 4.99 4.52c2.74-1.64 4.98-5.01 4.98-7.49zm89.71 0.56c0-6.49-9.08-10.98-15.03-7.44-2.79 1.66-3.78 5.03-2.2 7.49 3.74 5.84 17.23 5.8 17.23-0.05zm-105.27-14.23c3.78-2.31 5.33-6.61 3.44-9.55-3.96-6.17-22.76 1.48-22.76 9.25 0 5.75 10.15 5.9 19.32 0.3zm116.17-13.36c-3.59-1.39-7.89-1.22-9.55 0.38-1.65 1.6 1.29 2.73 6.54 2.53 5.81-0.24 6.99-1.37 3.01-2.91zm255.7-34.53c28.06-18.39 42.22-44.59 42.32-78.28 0.08-24.63-1.39-28.4-15.55-39.89-12.34-10.01-19.92-12.37-35.97-11.23-16.76 1.19-22.34 4.31-31.71 17.77-11.64 16.7-15.33 32.24-6.4 26.92 2.75-1.64 4.99-7.05 4.99-12.03 0-11.44 18.25-24.01 34.89-24.01 29.82 0 50.62 33.44 40.04 64.37-5.07 14.79-43.27 53.78-67.68 69.06-9.05 5.67-8.86 5.9 2.72 3.23 6.85-1.58 21.41-8.74 32.35-15.91zm-373.96-5.76c-1.58-2.46-6.38-4.48-10.66-4.48-6.34 0-6.64 1.34-1.64 7.16 6.44 7.47 17.29 5.11 12.3-2.68zm140.28-7.98c-1.66-1.6-2.84 1.24-2.62 6.31 0.24 5.59 1.42 6.73 3.01 2.9 1.44-3.47 1.26-7.61-0.39-9.21zm-30.43-1.3c1.7-2.64-0.41-4.81-4.69-4.81-4.27 0-7.77 2.17-7.77 4.81s2.12 4.8 4.69 4.8c2.58 0 6.08-2.16 7.77-4.8zm158.08-10.49c-7.6-7.33-12.23-2.86-8.01 7.72 2.31 5.83 4.82 6.73 8.59 3.09 3.77-3.63 3.6-6.78-0.58-10.81zm-257.39-1.63c-10.24-7.47-15.97-6.28-10.54 2.19 1.81 2.82 7.08 5.06 11.72 4.97 7.4-0.13 7.25-1.01-1.18-7.16zm-81.32-12.53c11.08-14.37 8.46-30.22-6.24-37.8-21.4-11.05-34.94 9.48-18.22 27.61l9.97 10.81-12.08-0.15c-24.03-0.3-42.31-24.72-37.4-49.96 3.92-20.18 25.41-39.6 53.05-47.96l22.1-6.69-19.93-0.3c-26.07-0.4-40.24 7.68-57.85 32.95-23.093 33.15-15.907 65.51 17.74 79.88 21.33 9.11 37.51 6.34 48.86-8.39zm33.61-7.51c0-6.27 3.35-19.12 7.44-28.57 4.1-9.44 6.21-19.1 4.69-21.47-3.91-6.09-45.76-5.34-49.76 0.9-1.83 2.85 1.66 8.55 7.75 12.66 9.62 6.5 10.78 10.77 8.89 32.76-2.15 24.99-2.04 25.23 9.41 20.2 7.38-3.24 11.58-9.22 11.58-16.48zm69.77 10.82c0-3.81-2.24-8.26-4.98-9.89-2.74-1.64-4.98 1.48-4.98 6.92s2.24 9.89 4.98 9.89 4.98-3.11 4.98-6.92zm331.7-31.93c1.84-2.88 1.16-7.34-1.53-9.93-3.18-3.07-5.81-1.25-7.57 5.22-2.83 10.43 3.37 13.64 9.1 4.71zm-114.96-19.61c37.55-28.48 35.75-92.41-3.6-127.81-27.16-24.43-95.33-36.91-133.9-24.5-20.31 6.53-47.37 29.93-57.6 49.81l-7.42 14.41 13.3-15.75c40.92-48.46 135.63-52.77 176.38-8.02 31.01 34.05 31.93 79.4 2.16 106.48-19.47 17.7-11.12 21.91 10.68 5.38zm-85.92-15.93c-1.3-6.57-0.94-15.51 0.8-19.88 2.88-7.25 4.04-7.16 13.31 0.92 18.91 16.5 40.08-11.09 21.94-28.57-11.03-10.64-30.22-9.82-42.27 1.8-12.09 11.66-13.27 39.37-2.13 50.11 10.39 10.02 11.13 9.63 8.35-4.38zm-21.17-44.69c0-6.28 28.15-20.26 40.78-20.26 6.5 0 17.04 3.52 23.42 7.83 11.25 7.6 11.43 7.53 5.95-2.35-13.76-24.79-77.81-34.02-107.06-15.44l-14.48 9.21 18.22 7.34c10.02 4.03 18.22 9.61 18.22 12.38 0 2.78 3.36 5.05 7.47 5.05 4.12 0 7.48-1.69 7.48-3.76zm-109.65-96.86c0-7.23-9.72-11.03-18.92-7.4-7.64 3.01-7.49 3.74 1.48 7.3 13.6 5.39 17.44 5.41 17.44 0.1z"/>
      <path id="path9406" style="stroke:#84061e;fill:#6ad500" d="m387 1008.7c-4.11-2.2-11.9-2.7-17.3-1-7.35 2.2-11.29-0.1-15.65-9.33-3.2-6.78-7.47-12.32-9.48-12.32-2 0-5.03-3.49-6.73-7.75-2.2-5.54-0.94-6.95 4.45-4.95 9.2 3.4 23.37-1.26 19.96-6.58-1.36-2.11-6.64-2.79-11.74-1.51-25.24 6.36-11.09-47.29 16.76-63.55 19.56-11.42 60.3-12.25 70.45-1.43 4.97 5.3 5.68 8.98 2.14 11.09-2.92 1.74-5.31 7.41-5.31 12.59 0 7.64 2.34 8.85 12.46 6.4 9.42-2.28 12.46-1.13 12.46 4.71 0 4.25-3.23 7.73-7.18 7.73-10.91 0-14.51 9.26-4.98 12.79 5.23 1.93 10.16 0.1 13.03-4.84 5.55-9.57 14.08-10.47 14.08-1.49 0 9.54-18.45 23.95-26.74 20.88-9.49-3.51-14.29 1.56-8.18 8.66 3.2 3.72 2.79 9.89-1.21 18.06-4.66 9.54-10.5 12.84-24.95 14.14-10.37 1-22.23-0.1-26.34-2.3zm14.28-10.17c2.81-7.07-0.41-12.48-7.43-12.48-2.28 0-4.15 4.32-4.15 9.61 0 11.04 7.59 12.94 11.58 2.87zm-21.55-10.37c0-7.92-7.88-9.26-12.46-2.11-4.07 6.34 1.89 15.35 7.82 11.8 2.55-1.52 4.64-5.88 4.64-9.69zm51.98 8.04c3.68-5.74-10.38-16.56-16.66-12.82-2.74 1.64-3.72 6.15-2.18 10.03 3.1 7.79 14.55 9.49 18.84 2.79zm-18.08-46.83c1.94-13.01-11.27-18.09-21.47-8.26-6.13 5.91-6.52 8.99-1.85 14.42 8.24 9.57 21.51 6.06 23.32-6.16zm-52.59-3.77c0.68-2.42-1.56-5.3-4.99-6.4-3.42-1.1-6.23 1.6-6.23 6 0 8.14 8.94 8.46 11.22 0.4zm13.7-21.43c0-2.32-3.16-6.75-7.03-9.84-5.33-4.27-7.9-4.28-10.6-0.06-1.97 3.07-0.49 7.47 3.29 9.77 8.84 5.4 14.34 5.45 14.34 0.13zm24.92-20.09c0-2.49-3.36-4.52-7.47-4.52-7.71 0-9.9 5.67-4.29 11.08 3.98 3.84 11.76-0.5 11.76-6.56zm26.17 3.08c0.68-2.42-1.56-5.3-4.98-6.4-3.43-1.1-6.23 1.6-6.23 6 0 8.14 8.93 8.46 11.21 0.4zm28.66 74.36c0-2.79 2.24-5.08 4.98-5.08s4.98 0.95 4.98 2.11c0 1.17-2.24 3.46-4.98 5.09-2.74 1.64-4.98 0.68-4.98-2.12zm176.82-43.7c-1.76-2.73-11.92-4.48-22.59-3.87s-20.02 0.14-20.78-1.03c-13.39-20.67-13.78-23.71-3.88-29.67 5.49-3.3 9.98-10.08 9.98-15.06 0-7.5-2.57-8.56-14.96-6.17-11.2 2.16-14.95 1.1-14.95-4.21 0-3.9 4.36-7.08 9.68-7.08 14.92 0 18.08-10.19 6.07-19.57-14.96-11.68-13.44-15.4 4.7-11.56 15.16 3.21 15.39 2.99 12.06-11.63-3.99-17.53 2.89-19.64 13.55-4.16 6.39 9.28 8.51 9.86 15.56 4.22 6.07-4.86 9.87-5.16 14.85-1.18 3.67 2.94 8.18 3.91 10.02 2.14 1.83-1.77 6.46 0.93 10.3 5.98 6.82 9 7.2 9.01 17.31 0.18 7.46-6.51 9.47-12.35 7.22-20.98-2.32-8.94-1.36-11.4 3.82-9.72 3.82 1.24 6.94 6.39 6.94 11.44s1.75 11.8 3.9 14.99c2.53 3.76-1.47 8.48-11.38 13.42-17.09 8.52-15.71 16.82 2.79 16.82 7.26 0 12.16 2.78 12.16 6.91 0 4.53-4.64 6.6-13.51 6-9.34-0.62-14.07 1.69-15.32 7.51-2.14 9.99 18.21 11.92 27.84 2.64 10.75-10.37 6.26 2.45-4.85 13.86-10.1 10.36-11.45 10.58-19.85 3.25-7.21-6.3-10.47-6.69-16.35-1.99-5.78 4.62-6.12 7.78-1.61 14.74 4.77 7.37 3.68 10.53-6.45 18.66-13.97 11.21-17.81 12.09-22.27 5.12zm11.67-18.22c1.03-6.78-1.05-10.43-5.94-10.43-9.82 0-13.91 6.78-10.01 16.58 4.2 10.56 13.97 6.79 15.95-6.15zm-30.66-12.46c-1.66-4.17-5.4-7.58-8.32-7.58-7.28 0-11.71 12.71-7.82 22.47 2.94 7.39 3.87 7.42 11.18 0.37 4.39-4.22 6.62-11.1 4.96-15.26zm36.89-29.61c9.41-10.94-0.4-23.62-18.27-23.62-14.73 0-20.82 9.83-15.05 24.3 3.68 9.27 25.13 8.83 33.32-0.68zm-94.65 20.02c-0.22-5.06 0.96-7.9 2.62-6.3 1.65 1.59 1.83 5.74 0.39 9.21-1.59 3.83-2.77 2.69-3.01-2.91zm-114.97-17.16c-5.73-5.53-12.41-15.09-14.84-21.26-2.56-6.5-10.34-12.63-18.49-14.58-22.28-5.33-36.48-21.11-36.66-40.73-0.09-9.45-3.45-21.38-7.47-26.51-4.03-5.13-7.32-17.85-7.32-28.27 0-16.36-3.38-22.15-24.75-42.44-31.28-29.68-39.15-51.78-30.01-84.3 9.59-34.16 18.36-48.48 34.66-56.61 20.32-10.13 39.15-9.11 65.14 3.52 17.97 8.74 23.11 14.19 26.76 28.43 8.01 31.29-11.03 61.66-38.65 61.66-29.84 0-49.42-25.63-32.24-42.2 11.54-11.12-1.17-12.09-13.39-1.02-9.52 8.62-12.44 16.11-12.44 31.88 0 65.28 103.74 87.93 158.54 34.62 35.59-34.62 48.13-72.06 40.24-120.17-6.1-37.19-16.18-42.8-11.58-6.44 3.28 25.93 2.85 28.17-4.24 22.49-5.86-4.69-10.45-4.99-17.85-1.17-14.8 7.64-23.58 6.33-37.97-5.68-10.29-8.57-13.96-17.59-17.76-43.62-2.63-18.05-7.54-37.51-10.91-43.25-5.74-9.79-6.27-9.27-8.68 8.66-2.34 17.37-4.36 19.6-22.51 24.86-10.96 3.17-26.79 5.93-35.17 6.14-12.2 0.29-18.4 4.68-31.05 21.99-8.85 12.1-19.79 21.62-24.87 21.62-4.98 0-17.91-8.74-28.72-19.42-19.3-19.06-20.16-19.36-45.87-16.26-20.29 2.44-26.33 1.67-26.77-3.41-0.32-3.61-1.1-8.72-1.74-11.36-0.63-2.65-1.5-6.69-1.91-9-1.63-8.99-15.71 8.44-15.71 19.43 0 16.79 13.75 39.99 23.8 40.17 4.72 0.09 15.2 5.75 23.27 12.59 14.08 11.93 14.3 12.71 5.28 19.07-23.98 16.9-62.26-0.37-78.3-35.33-10.1-22.01-10.13-22.99-1.39-47.76 4.9-13.91 14.18-30.06 20.62-35.89 14.25-12.92 14.43-16.09 1.73-31.64-15.29-18.74-12.36-27.27 14.95-43.64 21.19-12.7 24.92-17.16 24.92-29.79 0-8.17 3.44-21.26 7.64-29.09 7.41-13.81 7.25-14.38-5.31-18.98-22.89-8.39-35.74-5.32-56.73 13.55-21.06 18.93-24.64 28.5-14.37 38.4 4.65 4.49 3.71 5.77-4.22 5.77-22.94 0-34.07-31.98-20.85-59.96 3.22-6.79 13.5-16.91 22.85-22.49 14.1-8.39 21.87-9.64 45.34-7.28l28.33 2.86-4.63-40.62c-6.15-53.93 1.65-89.4 24.49-111.42 13-12.54 20.4-15.76 36.22-15.76 30.09 0 42.04 11.98 46.05 46.16 2.96 25.2 2.05 29.8-8.24 41.75-13.28 15.41-31.85 53.74-31.62 65.26 0.09 4.29 5.48-2.68 11.99-15.49 16.5-32.47 35.13-49.57 66.21-60.78 41.29-14.9 75.47-11.58 109.01 10.58 49.81 32.91 49.78 106.19-0.05 126.55-12.74 5.21-13.88 6.85-6.65 9.56 14.16 5.32 9.99 11.87-7.48 11.75-21.74-0.14-56.06-15.69-65.15-29.52-4.06-6.17-8.86-18.09-10.68-26.5-2.66-12.32-1.37-16.27 6.67-20.42 9.28-4.79 9.78-3.98 7.19 11.45-2.36 14.01-0.42 18.89 12.38 31.24 19.35 18.66 29.59 19.03 15.43 0.57-13.24-17.26-9.87-35.19 4.37-23.27 4.74 3.97 14.69 8.61 22.12 10.31 15.88 3.63 23.87-6.62 23.87-30.63 0-22.02-8.19-33.32-31.55-43.55-35.14-15.38-78.64-10.21-97.41 11.6-5.03 5.84-4.29 7.68 4.1 10.25 13.95 4.27 13.76 29.47-0.33 43.93l-10.56 10.84 10.43 12.78c5.74 7.03 11.86 20.13 13.61 29.11 1.75 8.99 5.73 16.36 8.85 16.38 3.12 0.03 17.45 5.33 31.84 11.79 19.07 8.56 26.17 14.41 26.17 21.58 0 14.43 8.21 12.14 33.58-9.39 24.94-21.17 48.91-25.49 63.48-11.44 10.25 9.87 6.55 13.81-6.6 7.02-14.71-7.59-16.25-6.61-12.61 8.02 4.36 17.52 5.22 18.11 15.06 10.3 7.63-6.07 8.1-5.46 5.01 6.52-2.63 10.17-1.63 13.21 4.35 13.21 14 0 46.19-18.71 56.72-32.96 10.24-13.87 10.25-14.05 0.6-25.87l-9.71-11.9 18.51 0.53c15.6 0.45 18.75-1.17 20.1-10.28 1.07-7.27-0.97-10.81-6.23-10.81-4.31 0-7.83 3.24-7.83 7.21 0 9.21-6.99 9.24-14.89 0.06-15.3-17.77 11.58-49.11 36.87-42.99 33.57 8.13 43.03 49.69 18.62 81.85-18.4 24.24-27.75 31.78-58.04 46.79-20.3 10.05-22.61 12.36-12.46 12.46 19.86 0.19 52.2-16.36 75.09-38.43 11.63-11.21 19.27-17.35 16.99-13.64-22.25 36.11-29.63 43.77-53.4 55.39l-26.09 12.74 12.19 7.75c24.93 15.86 39.05 29.73 47.29 46.47 18.19 36.95-10.29 42.73-34.16 6.93-14.15-21.23-45.73-44.72-75.29-56.02-27.8-10.62-28.63-6.53-3.34 16.38 35.16 31.85 53.44 70.66 52.37 111.24-0.44 16.92-3.09 35.29-5.89 40.84s-8.7 17.89-13.13 27.42c-9.51 20.49-27.5 37.94-60.65 58.82-20.53 12.92-24.56 18.01-26.67 33.63-1.79 13.2-6.01 20.27-14.96 25.01-10.7 5.68-11.09 6.64-2.76 6.78 5.33 0.1 15.63 5.66 22.89 12.37l13.2 12.19 12-9.42 11.99-9.41-14.85-5.48c-13.93-5.14-22.28-12.63-22.45-20.15-0.2-8.46 17.26-18.36 32.39-18.36 30.69 0 43.95 37.97 20.64 59.09-6.59 5.97-13.05 18.9-14.82 29.69-5.15 31.3-17.6 43.11-47.26 44.8-20.41 1.16-27.47-0.54-35.83-8.6zm53.77-10.63c3.29-3.17 5.98-10.78 5.98-16.92 0-10.72-0.48-10.86-12.12-3.51-14.23 8.99-30.05 3.47-35.25-12.3-4.14-12.59-12.43-7.55-12.43 7.55 0 23.75 37.24 41.17 53.82 25.18zm-93.7-113.84c0-5.4-12.96-10.44-16.95-6.59-6 5.78-2.73 10.88 6.99 10.88 5.48 0 9.96-1.93 9.96-4.29zm79.86-235.69c-7.24-16.86-15.07-19.33-15.07-4.76 0 15.46 9.91 30.5 16.14 24.49 3.66-3.53 3.34-9.46-1.07-19.73zm-161.92 4.21c11.54-21.51 8-29.36-14.12-31.27-19.99-1.71-27.36 5.18-21.43 20.07 2.63 6.6 4.32 6.19 11.95-2.9 7.95-9.45 9.59-9.78 15.35-3.1 7.29 8.48 3.59 17.52-7.17 17.52-3.95 0-7.18 3.25-7.18 7.21 0 12.58 14.39 7.78 22.6-7.53zm-77.42-13.81c0-5.67-9.72-11.73-13.29-8.29s2.72 12.81 8.6 12.81c2.58 0 4.69-2.03 4.69-4.52zm27.05-12.64c9.96-9.6 10.02-16.47 0.14-16.47-4.51 0-7.09-3.41-6.23-8.24 1.96-11.03-12.76-13.4-22.85-3.67-12.4 11.96-9.67 16.78 7.61 13.45 14.97-2.89 15.53-2.45 12.36 9.73-3.82 14.69-1.98 15.76 8.97 5.2zm97.55-1.14c0-8.37-13.76-21.42-19.18-18.18-7.62 4.54-7.33 15.85 0.49 18.89 9.9 3.85 18.69 3.52 18.69-0.71zm24.92-5.72c0-2.64-2.25-4.81-4.99-4.81s-4.98 2.17-4.98 4.81 2.24 4.8 4.98 4.8 4.99-2.16 4.99-4.8zm-9.97-23.51c0-4.29-11.72-10.13-20.34-10.13-2.52 0-4.58 3.25-4.58 7.21 0 4.49 4.71 7.21 12.46 7.21 6.85 0 12.46-1.93 12.46-4.29zm-55.14-21.11l-0.32-10.64-4.5 10.81c-2.49 5.97-8.81 10.81-14.11 10.81-10.36 0-17.71-12.09-12.4-20.39 1.94-3.02 0.92-3.71-2.47-1.69-9.81 5.85-6.46 22.14 5.46 26.48 14.91 5.42 28.73-2.08 28.34-15.38zm22.74 10.98c-1.69-2.64-4.07-4.8-5.28-4.8-1.2 0-2.19 2.16-2.19 4.8 0 2.65 2.37 4.81 5.28 4.81 2.9 0 3.89-2.16 2.19-4.81zm-97.74-14.94c12.2-12.62 8.47-23.5-8.06-23.5-10.58 0-11.57 1.13-6.33 7.21 4.59 5.34 4.76 8.89 0.65 13.66-3.05 3.54-4.08 7.87-2.27 9.61 4.65 4.49 5.13 4.28 16.01-6.98zm-34.33-8.93c0-6.43-2.39-8.57-7.48-6.69-7.99 2.95-9.53 7.76-4.15 12.95 6.29 6.06 11.63 3.18 11.63-6.26zm184.4-11.65c0-3.68-3.54-8-7.88-9.61-11.19-4.14-11.4-3.97-8.51 6.69 2.94 10.84 16.39 13.24 16.39 2.92zm-33.64-4.8c11.97-8.76 10.94-12.53-3.44-12.53-13.13 0-20.2 6.69-15.25 14.41 4.03 6.29 8.09 5.88 18.69-1.88zm-86.93-12.49c9.51-7.64 10.56-10.94 6.06-19.06-7.44-13.4-15.07-12.34-15.07 2.08 0 10.7-1.25 11.44-12.46 7.33-13.82-5.07-14.85-3.67-7.3 9.93 6.45 11.62 14.07 11.54 28.77-0.28zm59.83-9.35c1.25-3.6-0.62-5.41-4.36-4.2-3.6 1.15-7.52 4.94-8.72 8.4-1.25 3.61 0.62 5.41 4.36 4.21 3.6-1.16 7.52-4.94 8.72-8.41zm-4.05-24.33c0-2.64-2.37-4.8-5.27-4.8-2.91 0-3.9 2.16-2.2 4.8 1.69 2.65 4.07 4.81 5.28 4.81 1.2 0 2.19-2.16 2.19-4.81zm-54.93-194.73c-4.37-5.07-8.4-5.6-15.36-2-10.69 5.51-13.04 15.17-2.77 11.37 3.67-1.36 9.84 1.21 13.7 5.71 6.62 7.69 7.13 7.69 8.69-0.02 0.91-4.5-1.01-11.28-4.26-15.06zm265.4 679.14c3.08-8.91 13.81-10.39 13.81-1.9 0 4.18-3.55 7.61-7.89 7.61s-7.01-2.57-5.92-5.71zm18.79-32.45c0-2.8 2.25-5.09 4.99-5.09s4.98 0.95 4.98 2.12c0 1.16-2.24 3.45-4.98 5.09-2.74 1.63-4.99 0.68-4.99-2.12zm94.7-9.31c0-5.61 2.11-10.19 4.69-10.19 8.63 0 10.23 8.45 2.73 14.45-6.18 4.95-7.42 4.23-7.42-4.26zm-29.91-5.39c0-5.29 2.25-9.61 4.99-9.61s4.98 4.32 4.98 9.61-2.24 9.61-4.98 9.61-4.99-4.32-4.99-9.61zm-216.46-109.99c-2.19-3.42 1.6-5.35 10.58-5.4 7.7-0.03 19.61-1.41 26.46-3.05 9.38-2.25 11.12-1.6 7.05 2.64-7.75 8.06-39.93 12.3-44.09 5.81zm-32.73-10.13c-4.11-2.57-5.23-4.66-2.49-4.66s8.34 2.09 12.46 4.66c4.11 2.56 5.23 4.65 2.49 4.65s-8.35-2.09-12.46-4.65zm247.42-11.94c-1.56-3.92-6.12-5.91-10.13-4.42-5.29 1.95-6.61 0.13-4.78-6.63 1.63-6-0.55-10.46-6.11-12.52-8.16-3.02-8.15-3.55 0.19-9.43 7.73-5.45 7.98-7.55 2.01-16.83-5.85-9.1-5.75-11.27 0.66-15.31 4.11-2.59 12.8-3.49 19.32-2.01 9.26 2.11 11.2 1.07 8.88-4.76-2.03-5.08-0.03-7.45 6.26-7.45 5.36 0 10.45 4.5 12.14 10.73 2.31 8.5 4.18 9.5 9.05 4.8 8.9-8.58 12.87-7.42 22.34 6.5 7.2 10.61 7.4 13.12 1.36 17.19-5.42 3.64-5.62 5.33-0.86 7.19 3.43 1.34 6.23 7.93 6.23 14.64 0 10-1.27 11.18-7.08 6.53-8.73-6.98-29.3 3.41-25.53 12.89 1.32 3.31 0.23 6.02-2.43 6.02-2.65 0-4.83-2.16-4.83-4.81 0-2.64-3.36-4.8-7.47-4.8s-7.48 2.16-7.48 4.8c0 7.39-8.55 5.7-11.74-2.32zm26.69-33.43c0-3.81-1.99-8.11-4.42-9.56-5.48-3.27-16.65 8.98-12.15 13.32 5.93 5.72 16.57 3.3 16.57-3.76zm29.91-19.79c0-1.16-2.25-2.12-4.99-2.12s-4.98 2.29-4.98 5.09 2.24 3.76 4.98 2.12c2.74-1.63 4.99-3.92 4.99-5.09zm-59.81-4.8c0-1.17-2.24-2.12-4.98-2.12-2.75 0-4.99 2.29-4.99 5.09s2.24 3.75 4.99 2.12c2.74-1.64 4.98-3.93 4.98-5.09zm-453.65 0.15c-6.65-7.72-5.91-8.03 10.18-4.24 22.12 5.2 43.87 5.24 59.71 0.12 10.21-3.31 11.33-2.9 6.21 2.28-3.43 3.48-20.34 7.19-37.58 8.25-25.3 1.55-32.73 0.31-38.52-6.41zm483.55-45.23c0-2.49 2.25-5.86 4.99-7.49 2.74-1.64 4.98-8.25 4.98-14.7 0-13.33 7.33-15.68 12.04-3.85 1.73 4.34-0.33 12.99-4.57 19.22-7.75 11.42-17.44 15.2-17.44 6.82zm4.99-48.34c-2.94-5.28-4.22-9.61-2.85-9.61s4.9 4.33 7.83 9.61c2.93 5.29 4.21 9.61 2.84 9.61s-4.89-4.32-7.82-9.61zm-540.76-122.12c-21.197-16.38-14.45-17.09 17.45-1.82 25.03 11.98 26.11 13.13 12.46 13.25-8.49 0.08-21.42-4.86-29.91-11.43zm551.15-14.82c0.52-9.1 8.83-24.43 9.12-16.82 0.15 3.97-1.9 10.46-4.56 14.42s-4.71 5.04-4.56 2.4zm-102.47-57.66c3.33-15.26 15.52-31.23 23.85-31.23 2.74 0 1.55 3.78-2.64 8.41-4.2 4.62-11.39 14.89-15.99 22.82l-8.35 14.42 3.13-14.42zm-56.84-108.11c-18.63-22.35-12.75-26.41 6.43-4.44 11.28 12.92 16.38 23.66 11.25 23.66-0.91 0-8.87-8.65-17.68-19.22z"/>
      <path id="path9404" style="stroke:#84061e;fill:#6ad500" d="m404.65 1000.5c0-2.68 2.24-4.84 4.98-4.84s4.99 2.16 4.99 4.84c0 2.6-2.25 4.8-4.99 4.8s-4.98-2.2-4.98-4.8zm-51.46-12.81c-1.8-1.74-0.52-6.37 2.85-10.29 6.16-7.15 9.73-33.85 5.44-40.62-1.26-1.99-6.74-1.32-12.19 1.49-9.08 4.68-9.36 4.29-3.48-4.79 7.09-10.95 11.8-12.38 16.52-5.02 5.46 8.51 13.34-0.66 10.37-12.06-1.78-6.87 0.08-13.28 5.03-17.24 6.74-5.39 7.63-4.98 6.18 2.88-1.06 5.74 1.58 9.83 7.03 10.91 5.37 1.06 8.72-1.18 8.72-5.83 0-10.84 8.33-9.34 11.42 2.05 1.43 5.28 5.94 9.61 10.01 9.61 4.08 0 8.7 3.24 10.28 7.2 1.58 3.97 7.98 7.28 14.24 7.36 10.51 0.14 10.71 0.64 2.65 6.54-4.8 3.51-8.72 8.07-8.72 10.13s3.92 6.62 8.72 10.13c8.03 5.88 7.79 6.39-3.08 6.53-8.83 0.12-11.21 2.31-9.47 8.73 2.02 7.44-1.04 8.52-23.22 8.15-14.06-0.23-28.64-2.25-32.41-4.5-4.44-2.65-8.96-1.29-12.87 3.86-6.6 8.7-9.08 9.54-14.02 4.78zm61.43-32.88c4.95-5.75 4.95-8.66 0-14.41-3.42-3.97-9.02-7.21-12.46-7.21-9.34 0-18.97 13.26-15.67 21.56 3.72 9.34 20.11 9.38 28.13 0.06zm-69.78 2.41c0-2.65 2.24-4.81 4.98-4.81 2.75 0 4.99 2.16 4.99 4.81 0 2.64-2.24 4.8-4.99 4.8-2.74 0-4.98-2.16-4.98-4.8zm270.75-39.09c1.97-7.24-1.53-14.42-11.88-24.4-9.04-8.72-14.66-19.14-14.66-27.22 0-7.19-2.69-15.68-5.98-18.85-4.65-4.48-2.86-5.76 8.06-5.76 11.71 0 13.59-1.64 11.36-9.89-2.2-8.09-1.41-8.86 4.37-4.24 3.88 3.11 11.98 4.41 18 2.89 24.66-6.22 64.09 27.36 49.1 41.81-2.84 2.74-5.17 8.64-5.17 13.12 0 4.47-3.54 9.44-7.87 11.04-5.87 2.18-7.04 6.58-4.59 17.34 2.07 9.07 1.29 14.42-2.09 14.42-2.96 0-5.38-4.1-5.38-9.1 0-9.7-8.46-14.86-18.69-11.42-3.43 1.15-6.23 6.24-6.23 11.31 0 5.06-2.5 9.21-5.57 9.21-3.22 0-4.39-4.31-2.78-10.26zm30.42-35.74c18.66-17.98-2.24-42.36-24.56-28.65-13.06 8.02-14.9 18.75-4.88 28.41 10.18 9.82 19.43 9.9 29.44 0.24zm-196.51 1.44c-6.85-3.28-16.57-14.06-21.59-23.95-6.87-13.53-12.18-17.98-21.41-17.98-18.53 0-36.74-20.22-36.74-40.8 0-9.46-3.62-22.52-8.03-29.03-5.42-7.96-7.04-16.97-4.96-27.62 2.78-14.29 0.99-17.48-18.63-33.29-11.94-9.62-25.41-25.01-29.93-34.2-10.44-21.2-10.8-41.68-0.75-41.68 4.11 0 7.48-1.99 7.48-4.41 0-2.43 1.5-8.19 3.34-12.8 2.27-5.72 1.48-7.29-2.5-4.92-8.92 5.32-7.22-17.06 2.3-30.16 12.73-17.52 38.31-25.84 61.18-19.91 42.45 11.02 55.91 34.78 39.98 70.6-8.6 19.36-10.59 20.82-28.26 20.82-19.44 0-41.16-10.72-41.16-20.32 0-2.94 3.76-9.36 8.36-14.25 5.75-6.12 6.75-10.45 3.21-13.86-3.54-3.42-10.04-1-20.82 7.74-38.9 31.56-3.99 91.34 59.86 102.47 12.42 2.17 21.13 6.19 20.42 9.44-0.69 3.11 2.11 5.66 6.23 5.66 4.11 0 7.47-3.36 7.47-7.47 0-4.36 9.87-11.5 23.67-17.13 22.68-9.24 36.41-23.03 63.52-63.77 15.58-23.42 14.27-89.14-2.36-118.25-15.68-27.45-14.62-26.04-17.61-23.16-1.41 1.36 0.83 10.3 4.98 19.87 11.63 26.82 9.88 43.97-5.15 50.57-34.07 14.97-54.01 1.33-59.4-40.64-4.14-32.14-14.51-59.49-22.56-59.49-3.23 0-4.86 7.26-3.99 17.83 1.25 15.29-0.46 18.74-12.05 24.2-7.43 3.5-23.77 6.56-36.3 6.8-17.93 0.35-23.95 2.62-28.22 10.64-7.89 14.84-30 36.63-37.15 36.63-3.38 0-14.02-8.86-23.63-19.69-16.94-19.07-18.3-19.63-44-18.02l-26.52 1.67-1.56-15.61c-2.82-28.17-20.86-14.56-20.86 15.74 0 14.5 3.09 22.62 11.53 30.27 6.35 5.74 13.63 10.52 16.2 10.6 2.56 0.09 10.22 4.62 17.02 10.08 12.02 9.64 12.09 10.09 2.78 16.65-12.35 8.71-18.46 8.5-39.89-1.35-19.34-8.89-37.55-38.41-37.55-60.88 0-15.82 14.98-45.35 29.38-57.9 13.61-11.86 13.23-17.92-1.97-31.69-6.85-6.2-12.46-14.24-12.46-17.85s11.22-13.29 24.92-21.5c18.35-11 24.92-17.89 24.92-26.13 0-6.16 3.65-19.98 8.1-30.72 4.46-10.73 6.75-20.82 5.1-22.41-1.66-1.6-13.71-3.85-26.79-5.01-21.65-1.93-25.46-0.62-42.48 14.55-12.42 11.09-18.69 20.89-18.69 29.24 0 14.5-5.72 15.97-17.62 4.5-6.11-5.9-7.66-13.15-5.75-26.9 5.01-36.02 36.8-54.15 80.99-46.19 13.08 2.35 24.31 3.74 24.95 3.08 0.65-0.67-2.09-17.43-6.07-37.25-8.33-41.42-3.08-82.36 14-109.21 17.95-28.23 63.38-31.1 80.88-5.12 9.82 14.58 8.18 57.59-2.64 69.42-16.14 17.65-34.76 59.92-33.18 75.33l1.56 15.23 6.68-19.22c22.41-64.4 75.86-98.61 138.67-88.75 33.9 5.32 59.12 22.79 71.82 49.75 17.96 38.12 7.26 76.43-24.92 89.29-21.94 8.76-46.14 1.59-52.38-15.52-5.56-15.23 0.35-23.74 8.77-12.64 10.57 13.94 25.44 14.99 37.46 2.65 9.03-9.27 10.49-14.79 7.94-30.14-1.71-10.33-5.72-22.21-8.9-26.39-19.63-25.84-82.59-32.07-114.27-11.32-10.23 6.7-18.6 13.42-18.6 14.92 0 1.51 5.61 7 12.46 12.19 6.86 5.2 12.46 12.18 12.46 15.51 0 9.59-38.16 36.82-47.01 33.54-5.65-2.08-7.81 0.08-7.81 7.8 0 8.77 2.01 10.15 11.21 7.68 33.07-8.84 31.88-9.08 38.33 7.55 3.41 8.78 8.04 20.51 10.29 26.08 2.48 6.13 10.35 11.34 19.9 13.18 25.42 4.9 46.18 21.59 43.52 35-3.22 16.23 4.6 14.14 29.34-7.85 11.89-10.57 24.69-19.22 28.44-19.22 11.89 0 24.53 17.56 20.8 28.9-3.11 9.43-2.43 9.86 7.49 4.73 9.87-5.08 10.6-4.66 7.62 4.4-4.14 12.55 3.03 12.79 29.97 0.99 24.04-10.53 48.81-37.17 45.59-49.04-1.57-5.77 1.28-9.3 9.05-11.18 14.65-3.54 19.91-16.9 10.31-26.15-6.65-6.41-7.83-6.32-10.68 0.85-4 10.03-15.06 10.5-18.92 0.81-8.79-22.09 19.09-42.13 45.94-33.03 15.42 5.23 28.37 34 23.59 52.37-5.3 20.35-42.77 55.48-74.82 70.14-20.25 9.27-27.07 14.43-21.7 16.42 11.38 4.21 44.57-5.53 65.51-19.23 9.97-6.52 18.13-10.1 18.13-7.95 0 7.3-17.32 18.82-51.64 34.37l-34.2 15.48-29.27-8.54c-16.1-4.7-32.97-12.49-37.49-17.3-4.52-4.82-10.25-7.55-12.74-6.07-2.48 1.47 10.25 13.45 28.28 26.62 71.85 52.43 92.49 110.73 64.83 183.14-8.73 22.87-55.69 70.82-69.35 70.82-11.18 0-27.1 21.27-28.75 38.44-1.37 14.22-3.69 17.04-15.08 18.31-7.4 0.82-18.38-1.04-24.4-4.15-10.01-5.16-10.69-4.71-7.98 5.29 1.63 6.01 0.69 15.44-2.1 20.96-4.53 8.99-4.11 8.9 4.1-0.87 7.44-8.88 12.19-10.33 25.43-7.78 8.95 1.73 18.51 7.18 21.25 12.12 8.59 15.46 44.51 9.31 44.51-7.64 0-2.79-6.73-7.94-14.95-11.45-17.22-7.35-19.85-21.93-5.32-29.43 36.88-19.03 63.73 26.3 33.56 56.65-7.8 7.85-13.29 18.83-13.29 26.57 0 37.32-34.43 57.17-69.78 40.23zm44.86-13.1c9.92-9.57 13.92-33.64 5.59-33.64-2.4 0-7.16 3.24-10.58 7.21-11.99 13.93-34.88 5.42-34.88-12.98 0-9.7-7.53-11.54-12.91-3.15-1.94 3.03-3.33 12.11-3.09 20.18 0.81 27.47 35.97 41.55 55.87 22.38zm-94.11-78.24c-8.31-8.01-12.85 9.71-4.88 19.03 6.17 7.22 6.94 6.95 8.45-3.02 0.92-6.03-0.69-13.23-3.57-16.01zm-0.77-29.67c8.05-9.35 2.38-17.02-12.57-17.02-13 0-15.99 8.8-6.18 18.25 7.79 7.52 11.43 7.28 18.75-1.23zm64.97-2.61c0-2.64-3.36-4.8-7.47-4.8s-7.48 2.16-7.48 4.8 3.37 4.81 7.48 4.81 7.47-2.17 7.47-4.81zm-147.82-227.74c4.3-6.33 9.29-17.12 11.07-23.98 3.71-14.26-0.95-17.18-30.32-18.99-15.98-0.98-20.41-3.69-26.95-16.48-8.77-17.16-17.65-19.32-31.1-7.57-13.89 12.11-11.96 24.87 3.34 22.05 8.98-1.65 12.46-0.2 12.46 5.19 0 10.14-9.57 15.16-16.38 8.59-8.37-8.07-13.52-6.45-13.52 4.26 0 6.91 3.32 9.61 11.78 9.61 6.49 0 17.49-4.32 24.46-9.61 16.24-12.31 18.58-12.08 18.58 1.76 0 11.36 17.06 36.68 24.71 36.68 2.23 0 7.57-5.18 11.87-11.51zm-22.95-10.58c-4.85-4.67 1.81-16.35 9.33-16.35 3.82 0 6.94 4.33 6.94 9.61 0 9.05-9.7 13.07-16.27 6.74zm190.71 12.71c0-11.87-10.23-33.86-15.75-33.86-4.94 0-5.7 35.38-0.86 40.04 6.79 6.55 16.61 2.9 16.61-6.18zm-94.69-47.93c0-14.44-21.56-36.55-30.47-31.24-2.41 1.43-6.99-2.92-10.18-9.68-7.93-16.76-13.99-15.42-15.09 3.34-2.52 43.12 3.08 51.65 33.92 51.65 20.8 0 21.82-0.66 21.82-14.07zm-27.68-0.76c-1.85-2.88-1.05-7.45 1.76-10.16 6.29-6.06 15.95-0.94 15.95 8.46 0 8.09-12.83 9.32-17.71 1.7zm-38.11-24.57c10.91-10.52 7.16-27.4-6.85-30.79-15.36-3.72-37.01 4.75-37.01 14.49 0 17.73 30.59 29.1 43.86 16.3zm-26.86-10.42c-3.74-9.4 1.36-17.45 11.05-17.45 4.9 0 6.97 3.65 5.94 10.43-1.94 12.68-12.93 17.21-16.99 7.02zm-40.08-7.15c4.6-4.9 7.18-11.93 5.73-15.61-1.55-3.95 3.56-10.65 12.47-16.31 18.3-11.65 17.81-23.96-1.53-37.83-10.85-7.78-15.75-8.8-22.43-4.68-8.78 5.43-10.46 21.66-3.78 36.5 2.94 6.54 1.39 8.41-6.97 8.41-15.06 0-40.15 13.34-40.15 21.34 0 7.08 20.38 16.09 37.85 16.72 5.74 0.21 14.21-3.63 18.81-8.54zm-39.49-5.91c-5.13-8.02 6.42-17.2 13.29-10.58 5.75 5.55 2.16 15.8-5.54 15.8-2.42 0-5.91-2.35-7.75-5.22zm34.89-48.05c-4.35-6.79 5.26-16.05 12.29-11.86 2.98 1.78 5.42 6.35 5.42 10.16 0 8.09-12.82 9.32-17.71 1.7zm132.59 45.94c26.47-13.2 13.61-31.11-22.35-31.11-14.27 0-17.77 1.84-17.77 9.33 0 13.47 9.14 16.9 19.94 7.49 10.01-8.74 19.93-6.21 19.93 5.09 0 4.22-4.97 6.92-12.75 6.92-7.24 0-11.42 2.08-9.68 4.8 4.03 6.28 5.31 6.14 22.68-2.52zm-45.1-50.33c0-19.02-5.76-27.1-15.28-21.43-3.51 2.09-2.63 6.02 2.62 11.61 7.12 7.58 7.15 9.06 0.26 14.57-5.8 4.64-6.3 7.72-2.05 12.65 8.67 10.08 14.45 3.12 14.45-17.4zm-28.09 2.43c-1.57-3.95-4.87-5.98-7.32-4.52-7.04 4.19-5.21 11.7 2.86 11.7 4.44 0 6.19-2.82 4.46-7.18zm-24.69-190.13c0.57-25.59-11.18-35.09-26.67-21.57-13.65 11.91-12.95 16.23 2.2 13.44 11.42-2.11 13.41-0.18 13.69 13.24 0.02 1.32-1.51 8.89-3.41 16.82-3.27 13.6-2.98 13.96 5.14 6.27 5.21-4.94 8.77-16.04 9.05-28.2zm282.04 677.81c0-2.64 2.24-4.8 4.98-4.8s4.98 2.16 4.98 4.8-2.24 4.81-4.98 4.81-4.98-2.17-4.98-4.81zm112.13-38.44c1.7-2.64 5.33-4.8 8.07-4.8s3.6 2.16 1.9 4.8c-1.69 2.64-5.32 4.81-8.06 4.81s-3.6-2.17-1.91-4.81zm-57.58-173.24c-15.8-15.23-10.96-34.79 12.23-49.43 11.9-7.52 12.92-7.27 27.61 6.89 23.81 22.96 19.17 38.25-14.44 47.55-12.79 3.53-17.5 2.61-25.4-5.01zm29.99-16.35c6.85-7.95 2.96-17.03-7.29-17.03-8.97 0-14.08 8.24-10.57 17.05 3.54 8.9 10.19 8.89 17.86-0.02zm10.23-82.81c0.04-2.14 2.25-7.13 4.9-11.1 4.17-6.21 4.85-6.08 4.91 0.92 0.04 4.47-2.16 9.46-4.91 11.1-2.74 1.63-4.94 1.22-4.9-0.92zm-35.68-19.5c-3.98-4.63-13.6-17.6-21.38-28.83-7.78-11.24-16.09-20.43-18.46-20.43-2.36 0-4.3-4.32-4.3-9.61 0-12.94 4.83-12.15 29.02 4.75 30.02 20.96 49.06 62.52 28.65 62.52-3.46 0-9.55-3.78-13.53-8.4zm-206.12-189.4c-15.41-8.22-32.39-24.28-32.39-30.64 0-3.15 7.5 1.09 16.66 9.42 9.17 8.33 25.43 17.51 36.13 20.38 18.51 4.97 18.73 5.25 4.52 5.69-8.22 0.25-19.44-1.93-24.92-4.85z"/>
      <path id="path9402" style="stroke:#84061e;fill:#6ad500" d="m375.32 972.19c-5.8-5.59-10.47-15.03-10.38-20.98 0.36-23.45 31-42.05 51.73-31.4 34.97 17.95 28.16 54.92-11.06 59.99-15.71 2.04-21.89 0.48-30.29-7.61zm41.82-15.02c6.23-9.73-2.96-23.98-15.48-23.98-13.06 0-19.88 9.74-15.15 21.62 3.23 8.1 25.83 9.84 30.63 2.36zm193.4-59.22c-11.49-5.51-16.66-16.3-18.12-37.87-1.09-16.14 14.18-25.17 42.56-25.17 25.91 0 40.84 15.71 35.94 37.81-6.25 28.17-31.89 38.89-60.38 25.23zm41.48-20.33c7.99-11.76 7.89-12.79-2.27-22.58-8.8-8.49-13.04-9.46-24.46-5.6-8.69 2.93-14.41 8.73-15.44 15.64-3.72 25.09 27.36 34.33 42.17 12.54zm-211.92-4.89c-5.57-6.82-11.49-16.55-13.16-21.62-1.83-5.56-7.57-9.21-14.48-9.21-19.95 0-37.69-17.61-37.87-37.59-0.09-9.72-3.46-21.87-7.48-27s-7.32-19.48-7.32-31.88c0-18.59-2.13-23.9-12.13-30.22-27.16-17.15-53.9-68.72-35.64-68.72 4.32 0 10.19 8.1 13.92 19.19 8.71 25.96 36.24 46.84 66 50.07 19.9 2.16 22.52 3.72 19.86 11.8-2.67 8.12-0.93 9.11 13.58 7.77 12.41-1.15 16.65-3.84 16.65-10.58 0-10.09 20.25-19.86 25.19-12.16 1.69 2.64 0.32 8.01-3.05 11.92-3.36 3.91-4.5 8.68-2.51 10.59 1.99 1.92 6.45-0.26 9.92-4.84 3.48-4.58 7.7-7 9.39-5.37 5.88 5.67-7.43 21.71-22.11 26.65-17.76 5.96-16.11 16.26 2.4 14.98 14.26-0.98 16.59 2.89 7.18 11.96-8.88 8.56-22.64 7-33.89-3.84-12.58-12.13-13.9-12.03-15.85 1.2-1.14 7.74-5.48 11.24-15.3 12.33-10.66 1.18-13.7 4.05-13.7 12.94 0 25.01 34.56 30.86 42.36 7.17 4.38-13.31 22.32-12.1 36.66 2.48 13.93 14.16 30.24 15.25 45.85 3.06 13.54-10.57 10.45-23.32-6.2-25.6-8.53-1.16-11.52-4.69-11.52-13.58 0-9.94 2.69-12.27 15.57-13.48 30.89-2.89 43.22 30.26 19.32 51.92-6.86 6.2-12.46 15.99-12.46 21.74 0 17.31-10.41 40.61-20.46 45.8-11.07 5.7-12.3 1.26-2.64-9.51 8.87-9.88 14.4-32.68 8.75-36.05-2.43-1.45-10.36 1.87-17.62 7.38-10.63 8.06-14.62 8.87-20.52 4.15-4.02-3.22-7.32-9.79-7.32-14.6 0-12.97-10.52-16.85-18.2-6.72-10.51 13.86-7.94 31.7 6.67 46.4 7.37 7.42 10.9 13.48 7.84 13.48-3.05 0-10.11-5.58-15.68-12.41zm-37.94-117.32c0-9.54-2.83-12.33-13.71-13.54-11.58-1.28-13.71 0.27-13.71 10.01 0 14.48 4.32 18.72 17.24 16.94 7.14-0.98 10.18-4.98 10.18-13.41zm97.18-38.77c0-2.94-4.25-3.83-9.97-2.08-17.76 5.44-9.06-15.36 20.44-48.84 7.37-8.36 16.14-23.22 19.5-33.03 8.66-25.3 4.36-92.2-7.01-108.89-5.36-7.88-7.56-16.85-5.59-22.83 2.69-8.17 1.07-9.84-9.56-9.84-14.59 0-15.73 4.61-5.74 23.23 3.87 7.23 8.58 21.01 10.45 30.63 3.12 16.05 2.16 18.11-11.79 25.06-34.11 17-52.33 2.06-57.83-47.43-2.19-19.75-7.09-35.57-13.41-43.32-14.28-17.5-18.32-15.15-15.49 9.04 2.48 21.2 2.45 21.25-16.81 26.4-10.61 2.84-27.14 5.24-36.74 5.32-14.96 0.14-19.22 2.94-29.9 19.7-19.36 30.35-25.8 31.39-47.98 7.74-18.05-19.23-20.57-20.33-46.6-20.33-26.63 0-27.54-0.44-28.03-13.3-0.28-7.32-2.11-14.85-4.08-16.75-6.15-5.93-22.6 19.71-22.72 35.41-0.11 15.43 16.04 40.16 26.42 40.44 9.56 0.27 29.32 18.38 25.89 23.74-4.12 6.42-17.09 6.26-37.08-0.46-12.29-4.13-18.99-11.39-28.62-31-11.12-22.63-11.9-27.57-6.74-42.64 3.21-9.37 13.51-25.89 22.88-36.71l17.05-19.67-14.53-17c-8-9.35-13.54-19.5-12.33-22.55 1.22-3.05 12.25-10.84 24.52-17.3s22.45-12.87 22.64-14.25c0.18-1.38 1.34-9.95 2.56-19.06 1.22-9.1 5.77-21.79 10.12-28.18 7.11-10.46 7.13-12.37 0.24-19.02-4.39-4.23-17.1-7.58-29.77-7.85-19.36-0.41-24.67 1.92-42.67 18.75-11.3 10.57-20.55 23.01-20.55 27.63-0.01 12.08-9.45 10.37-14.58-2.65-6.99-17.71-0.54-35.86 18.44-51.93 16.09-13.62 19.93-14.73 43.03-12.42 13.95 1.39 30.79 4.14 37.42 6.11 10.5 3.11 11.55 2.39 8.15-5.61-20.81-48.9-14.4-130.13 12.1-153.25 5.11-4.46 18.52-9.29 29.81-10.75 16.87-2.19 22.7-0.68 32.78 8.45 10.28 9.31 12.26 15.59 12.26 38.81 0 15.24-2.29 29.08-5.09 30.75-8.84 5.26-33.42 56.74-37.02 77.52-5.18 29.95 5.19 30.13 14.2 0.25 10.18-33.77 32.78-63.03 58.99-76.4 31.66-16.13 89.72-15.69 114.8 0.88 25.24 16.68 38.53 41.49 38.53 71.98 0 21.16-2.21 27.07-14.57 38.99-19.77 19.06-50.94 19.99-63.24 1.88-10.03-14.76-5.49-21.26 7.15-10.23 21.63 18.87 53.12-2.46 47.33-32.06-7.03-35.95-23.06-47.58-74.32-53.95-27.12-3.36-44.24 2.27-65.41 21.54-11.22 10.22-10.64 24.4 1 24.4 3.48 0 8.92 3.01 12.09 6.68 4.59 5.34 1.61 9.85-14.81 22.38-15.51 11.85-21.54 14.18-24.54 9.49-3.01-4.69-5.34-3.78-9.49 3.7-7.17 12.91-1.85 26.54 8.81 22.56 25.31-9.45 33.83-8.23 39.4 5.62 3.03 7.51 6.19 17.84 7.04 22.96 0.98 5.99 7.54 10.81 18.37 13.52 17.25 4.31 40.36 16.66 46.25 24.71 1.81 2.49 1.25 9.71-1.25 16.04-7.98 20.26-4.98 21.98 14.15 8.13 10.28-7.45 19.86-15.14 21.29-17.11 5.39-7.4 31.31-17.69 38.16-15.16 4.29 1.59 6.52 7.65 5.61 15.24-1.1 9.14-6.74 15.06-20.58 21.57l-19.06 8.98 16.9 10.24c32.72 19.84 62.37 44.04 71.44 58.3 28.01 44.02 32.62 57.07 29.94 84.65-1.44 14.85-5.91 33.23-9.93 40.85-4.03 7.61-9.92 20.74-13.09 29.18-3.18 8.44-16.02 23.03-28.54 32.43-23.68 17.8-31.09 20.65-31.09 11.97zm42.93-40.67c4.54-6.69 7.02-13.35 5.51-14.81-3.43-3.31-23.52 15.63-23.52 22.17 0 8.87 9.66 4.92 18.01-7.36zm-60.99-158.92c-13.72-26.7-22.91-27.25-18.77-1.14 4.35 27.45 10.98 35.84 20.83 26.34 6.38-6.15 6.13-9.25-2.06-25.2zm-159.79 9.95c4.62-9.34 8.4-20.15 8.4-24.02 0-8.22 10.59-9.32 18.29-1.91 7.16 6.91 41.51 0.46 45.06-8.45 4.39-11.02-7.18-29.95-22.16-36.3-14.41-6.1-21.05-12.46-21.18-20.28-0.04-2.54 3.64-1.05 8.17 3.32 7.68 7.41 9.58 7.3 27.42-1.47 10.54-5.18 19.16-12.73 19.16-16.78 0-9.45-32.9-22.8-47.5-19.27-10.04 2.43-11.54 0.49-14.55-18.87-4.1-26.38-14.29-28.35-34.11-6.58l-13.64 14.99-13.31-12.82c-8.91-8.6-17.52-12.35-26.09-11.39-11.85 1.33-12.72 3.09-11.97 24.26 0.77 21.98 0.29 22.82-13.16 22.82-7.67 0-19.25 4.32-25.72 9.61l-11.77 9.61 11.77 9.61c6.47 5.29 15.63 9.61 20.35 9.61 13.05 0 15.41 4.85 7.86 16.17-3.76 5.64-8.38 18.34-10.25 28.23-4.49 23.68 6.82 28.58 33.46 14.5 11.89-6.27 19.05-7.95 19.06-4.44 0.04 11.32 20.05 36.83 28.89 36.83 5.53 0 12.43-6.68 17.52-16.98zm-23.3-5.57c-5.61-5.41-3.42-11.08 4.29-11.08 4.11 0 7.47 2.03 7.47 4.52 0 6.06-7.78 10.4-11.76 6.56zm-61.91-26.24c1.23-3.55 6.23-7.21 11.12-8.12 5.68-1.06 8.07 0.67 6.65 4.8-1.23 3.56-6.23 7.21-11.12 8.13-5.68 1.06-8.08-0.67-6.65-4.81zm131.68-7.39c-5.61-5.42-3.41-11.09 4.29-11.09 4.11 0 7.48 2.04 7.48 4.53 0 6.06-7.78 10.39-11.77 6.56zm-96.32-20c-6.76-12.22-8.79-20.63-5.69-23.62 2.65-2.56 5.31-7.85 5.91-11.76 2.63-17.33 18.44-32.59 33.76-32.59 11.97 0 14.7 1.69 12.34 7.6-1.66 4.19-3.02 9.59-3.02 12.02 0 2.42-3.93 4.48-8.72 4.56-29.17 0.51-35.77 36.92-8.26 45.5 21.74 6.77 22.6 14.16 1.83 15.84-16.03 1.3-18.59-0.3-28.15-17.55zm23.36-21.8c0-7.25 12.11-13.67 16.96-9 6.56 6.33 2.39 15.69-6.99 15.69-5.48 0-9.97-3.01-9.97-6.69zm-74.76-12.53c0-2.64 3.37-4.81 7.48-4.81s7.48 2.17 7.48 4.81-3.37 4.8-7.48 4.8-7.48-2.16-7.48-4.8zm147.03-4.81c-4.07-6.34 1.89-15.33 7.82-11.8 6.05 3.6 6.01 16.61-0.05 16.61-2.58 0-6.08-2.16-7.77-4.81zm-37.38-14.41c0-2.64 2.24-4.81 4.98-4.81s4.99 2.17 4.99 4.81-2.25 4.8-4.99 4.8-4.98-2.16-4.98-4.8zm-14.95-28.43c0-5.9 3.22-10.01 7.84-10.01 4.64 0 7.18 3.27 6.23 8.01-2.43 12.05-14.07 13.71-14.07 2zm-59.81-0.4c0-2.64 2.24-4.81 4.98-4.81 2.75 0 4.99 2.17 4.99 4.81s-2.24 4.8-4.99 4.8c-2.74 0-4.98-2.16-4.98-4.8zm2.93-114.1c-5.44-5.24-9.17 3.1-5.27 11.79 3.71 8.23 3.98 8.22 6.04-0.17 1.19-4.83 0.85-10.06-0.77-11.62zm31.96-71.43c0-22.7-4.61-30.7-17.7-30.7-12.76 0-27.16 16.14-27.16 30.44 0 8.11 1.02 7.86 9.62-2.27 7.43-8.78 10.97-10.06 15.62-5.65 4.61 4.36 4.69 10.74 0.36 27.35-7.86 30.09-7.34 31.07 6.8 12.6 7.22-9.44 12.46-22.8 12.46-31.77zm337.13 461.82c-19.62-18.92-0.19-51.55 25.51-42.84 17.08 5.8 26.37 27.89 15.88 37.79-12.11 11.43-32.23 13.89-41.39 5.05zm29.18-19.22c0-11.11-16.79-16-22.79-6.64-5.19 8.09 4.47 19.52 14.86 17.59 4.36-0.81 7.93-5.74 7.93-10.95zm-293.42 0.08c-6.19-4.52-8.18-9.75-5.88-15.47 3.31-8.23 3.78-8.24 9.94-0.18 5.46 7.15 7.36 7.42 12.23 1.77 4.47-5.2 4.06-7.34-1.84-9.52-10.7-3.96-9.79-22.29 1.12-22.48 7.89-0.14 7.8-0.83-0.95-7.21-12.56-9.16-24.63-9.17-20.99-0.02 1.72 4.3-2.91 10.96-11.92 17.14l-14.73 10.11v-10.45c0-7.31-2.24-9.62-7.48-7.68-13.21 4.89-8.12-9.97 7.86-22.94 18.39-14.91 38.65-15.86 67.65-3.17 16.1 7.05 21.46 12.45 24.18 24.39 2.11 9.26 1.32 17.44-2 20.64-3.01 2.91-5.48 10.33-5.48 16.49 0 11.82-15.45 21.49-18.81 11.76-2.38-6.88-16.08-7.61-16.08-0.86 0 6.58-5.71 5.79-16.82-2.32zm269.85-97.27c-22.71-24.53-48.17-61.55-43.39-63.08 16.43-5.28 68.06 55.42 56.57 66.5-3.73 3.6-7.62 2.59-13.18-3.42zm-110.99-79.73c-19.34-7.34-27.41-12.48-27.41-17.45 0-7.18 15.12-9.82 24.35-4.26 17.68 10.64 80.31-31.26 80.31-53.73 0-4.63 5.61-11.95 12.46-16.28s12.46-12.21 12.46-17.52c0-12.84-14.7-17.96-22.4-7.8-3.3 4.35-7.46 6.5-9.24 4.78-6.39-6.16-3.08-24.2 5.87-32.01 22.21-19.38 55.67 1.31 55.67 34.42 0 30.59-38.83 71.86-80.04 85.05-29.17 9.34-31.9 16.72-6.18 16.72 13.19 0 16.91 1.48 13.06 5.19-7.99 7.71-41.84 9.37-58.91 2.89z"/>
      <path id="path9400" style="stroke:#84061e;fill:#6ad500" d="m380.97 973.87c-14.09-9.54-15.26-35.66-2.1-47.14 27.89-24.33 72.47 12.76 49.45 41.13-9.55 11.76-34.21 14.89-47.35 6.01zm33.45-14.02c7.67-8.92 5.07-21.78-5.74-28.34-6.46-3.93-10.83-3.03-18.69 3.83-12.56 10.95-13.08 19.82-1.54 26.3 12.13 6.81 18.97 6.34 25.97-1.79zm217.85-58.87c-7.35-1.84-5.91-3.81 7.48-10.26 22.12-10.65 25.25-30.29 6.69-42.01-11.28-7.13-14.65-7.35-25.64-1.68-10.76 5.56-12.39 9.26-10.86 24.72 1.96 19.8-2.6 23.57-10.74 8.9-13.44-24.2 1.27-43.56 33.08-43.56 26.32 0 39.11 12.71 34.61 34.39-3.04 14.67-16.19 33.52-22.54 32.32-1.63-0.3-7.07-1.58-12.08-2.82zm-227.38-63.97c-21.29-4.84-30.1-15.9-30.3-38.08-0.09-9.4-3.46-21.29-7.48-26.42-8.43-10.75-9.21-21.3-2.76-37.64 3.77-9.56 7.22-11.18 19.93-9.38 19.08 2.7 20.07 9.54 1.68 11.58-11.43 1.26-13.71 3.83-13.71 15.41 0 25.65 31.7 29.8 36.71 4.81 2.31-11.52 9.71-16.13 26.01-16.23 16.98-0.09 21.36 4.78 10.91 12.15-7.31 5.15-7.51 7.06-1.52 14.02 3.82 4.44 11.02 7.03 16.02 5.77 4.99-1.25 7.82-0.32 6.28 2.07-1.54 2.4-8.32 4.36-15.08 4.36-8.63 0-13.75-3.7-17.18-12.4-5.67-14.37-16.56-13.24-18.88 1.96-0.97 6.34-6.35 11.58-13.75 13.37-16.19 3.91-21.24 23.1-9.4 35.7 12.3 13.11 30.27 11.95 40.15-2.59 4.49-6.61 11.85-12.01 16.36-12.01 8.51 0 23.3 18.17 18.53 22.77-1.5 1.45-4.13-0.93-5.86-5.27-4.89-12.27-16.64-9.33-25.98 6.49-4.67 7.91-9.62 14.18-10.99 13.92-1.37-0.25-10.23-2.22-19.69-4.36zm79.5-7.82c0-4.23 6.06-6.51 17.29-6.51 11.79 0 16.52 1.91 14.88 6-3.35 8.39-32.17 8.85-32.17 0.51zm38.97-31.54c-1-6.7-6.18-11.66-14.02-13.43-14.48-3.27-19.16-16.63-7.35-21 23.44-8.67 48.36 15.37 37.05 35.74-6.86 12.36-13.71 11.78-15.68-1.31zm-73.86-75.6c0-2.8 2.25-5.08 4.99-5.08s4.98 0.95 4.98 2.11c0 1.17-2.24 3.46-4.98 5.09-2.74 1.64-4.99 0.68-4.99-2.12zm49.84-36.88c0-1.64 6.64-10.26 14.74-19.16 20.46-22.46 26.92-49.26 23.24-96.29-2.6-33.11-1.85-39.58 4.85-42.06 9.03-3.34 16.98 0.14 16.98 7.44 0 2.73 4.48 10.46 9.97 17.18 6.82 8.37 9.96 19.5 9.96 35.28 0 27.63-8.49 52.98-14.57 43.5-2.94-4.58-4.87-3.23-7.06 4.96-1.7 6.35-11.63 15.97-22.74 22.03-10.84 5.92-21.14 15.11-22.89 20.42-2.88 8.75-12.48 13.9-12.48 6.7zm125.02-31.87c-2.33-5.95-3.01-12.8-1.51-15.24 1.5-2.43 4.46 0.09 6.58 5.6 2.11 5.51 7.91 12.3 12.88 15.09 8.25 4.63 8.05 5.08-2.33 5.21-7.31 0.1-12.9-3.72-15.62-10.66zm34.52-3.7c6.33-11.41 2.99-18.22-11.78-23.96l-10.7-4.17 10.64-0.3c13.92-0.4 27.43 18.92 20.99 30-6.89 11.89-15.77 10.36-9.15-1.57zm-259.22-16.72c0-3.97 2.25-7.21 4.99-7.21s4.98 3.24 4.98 7.21c0 3.96-2.24 7.2-4.98 7.2s-4.99-3.24-4.99-7.2zm6.27-27.63c-2.71-3.3-5.87-8.94-7.02-12.52-2.52-7.86-37.53-20.2-47.19-16.63-3.78 1.4-6.88 6.66-6.88 11.68 0 7.94-1.31 8.35-9.97 3.14-14.02-8.45-12.5-12.77 7.31-20.75 15.26-6.15 20.06-6.07 41.12 0.65 25.38 8.11 36.3 17.65 36.3 31.74 0 10.07-6.56 11.36-13.67 2.69zm-195.65-15.47c0-4.3 2.92-5.97 7.47-4.29 4.11 1.52 7.48 4.7 7.48 7.06s-3.37 4.29-7.48 4.29-7.47-3.18-7.47-7.06zm-29.91-17.99c0-14.31 0.61-14.87 8.16-7.58 4.49 4.32 6.8 11.27 5.14 15.44-5.2 13.06-13.3 8.27-13.3-7.86zm278.21-7.38c-4.09-4.63-10.17-23.39-13.52-41.69-3.35-18.31-10.61-39.39-16.12-46.85-11.21-15.18-26.55-18.72-22.37-5.16 9.76 31.67 9.45 34.56-4.22 39.57-7.32 2.68-23.22 4.87-35.34 4.87-20.07 0-23.11 1.63-33.89 18.09-22.07 33.71-26.53 34.78-48.8 11.76-10.77-11.13-21.93-20.24-24.8-20.24-7.66 0-2.3-11.8 5.99-13.2 3.89-0.65 10.55 5.67 14.8 14.05 12.64 24.89 23.22 28.11 37.25 11.34 6.55-7.84 12.57-18.65 13.37-24.03 1.29-8.72 4.45-9.61 29.17-8.19 33.58 1.92 42.72-4.96 34.45-25.94-2.93-7.42-9.87-16.57-15.42-20.32-9.83-6.64-9.63-7.13 7.71-18.49 9.79-6.41 17.81-15.56 17.81-20.33 0-10.68-19.65-19.82-42.6-19.82-16.23 0-17.21-0.92-17.21-16.22 0-8.93-3.46-19-7.68-22.38-6.46-5.17-10.37-3.63-24.62 9.69l-16.95 15.83-15.63-12.68c-8.59-6.97-19.86-12.68-25.04-12.68-12.51 0-21.13 16.55-17.32 33.27 2.73 11.95 1.45 13.8-11.19 16.24-7.84 1.51-19.65 6.96-26.25 12.11-10.11 7.89-10.98 10.53-5.52 16.87 3.55 4.13 14.14 9.95 23.51 12.94 9.37 2.98 17.05 6 17.05 6.71s-3.82 8.65-8.47 17.65c-4.66 8.99-8.47 23.38-8.48 31.97 0 8.59-1.79 15.61-3.99 15.61-2.19 0-3.98-6.35-3.98-14.13 0-7.77-2.11-15.38-4.69-16.92-7.41-4.41-24.79 16.75-28.21 34.35-3.61 18.56-10.65 24.81-15.16 13.47-3.1-7.78 16.79-55.21 23.15-55.21 1.81 0 6.22-5.28 9.8-11.73 5.84-10.51 5.15-13.29-6.64-26.79-7.23-8.29-13.14-16.94-13.14-19.23 0-2.28 10.97-10.1 24.38-17.37 23.26-12.6 24.48-14.3 26.76-37.12 1.53-15.35 5.55-26.15 11.25-30.16 11.91-8.4 2.31-19.85-19.28-22.99-51.47-7.49-56.58-7.1-54.35 4.17 1.49 7.5-1.69 13.04-10.77 18.77-7.08 4.47-12.88 12.59-12.88 18.04 0 14.29-12.14 8.53-14.01-6.65-1.81-14.66 6.65-32.31 15.48-32.31 3.36 0 8.9-4.32 12.33-9.61 7.61-11.75 42.42-13.19 68.19-2.81 19.98 8.05 24.61 5.5 15.5-8.55-19.43-29.95-21.8-90.85-4.8-123.39 4.77-9.13 10.21-19.85 12.1-23.81 1.89-3.97 7.38-7.96 12.21-8.87 5.38-1.02 7.47 0.38 5.4 3.6-4.93 7.7 13.45 6.54 24.92-1.57 8.43-5.97 10.79-5.87 18.4 0.74 6.54 5.7 8.72 15.12 8.72 37.79 0 16.78-2.44 31.66-5.48 33.47-11.16 6.65-34.39 62.25-34.39 82.31-0.01 31.89 8.08 28.4 19.71-8.51 19.78-62.8 74.12-98.19 133.17-86.76 14.97 2.9 34.05 9.96 42.41 15.7 17.83 12.24 33.7 43.13 33.86 65.9 0.28 41.31-42.15 67.59-70.36 43.58-10.26-8.72-10.49-9.58-1.8-6.66 24.53 8.25 27.31 7.76 41.56-7.28 12-12.66 13.82-17.6 10.42-28.13-2.27-7.03-5.99-20.27-8.26-29.43-3.4-13.73-7.16-17.38-21.43-20.82-33.83-8.16-77.06-11.58-87.08-6.88-15.86 7.44-37.38 28.64-37.4 36.84-0.01 4.13-6.73 17.24-14.93 29.13s-14.92 27.81-14.93 35.38c-0.02 12.44 1.29 13.51 13.68 11.15 34.21-6.51 33.24-6.9 41.09 16.73 6.55 19.73 9.79 23.09 27.05 28.07 23.72 6.86 42.76 18.33 42.72 25.74-0.01 3-3.38 11.65-7.47 19.22-9.12 16.86-9.14 17.47-0.56 17.47 3.79 0 21.17-10.77 38.63-23.93 33.7-25.42 42.72-28.6 47.44-16.73 3.57 8.96-11.58 26.24-23 26.24-11.06 0-30.78 14.05-20.03 14.27 9.68 0.19 44.77 23.04 44.77 29.15 0 2.55-4.39 4.63-9.74 4.63-9.35 0-9.26 1.01 2.44 25.23 14.43 29.89 15.47 45.86 3.56 54.58-12.35 9.03-33.28 8.17-42.01-1.72zm29.82-26.3c2.13-10.67-12.75-40.69-21.84-44.06-5.41-2-7.09 1.98-7.09 16.77 0 10.66 2.39 23.69 5.32 28.97 6.22 11.2 21.25 10.14 23.61-1.68zm-221.91-268.24c1.51-10.82 8.54-28.13 15.63-38.45 14.74-21.49 16.65-45.44 4.63-58.24-21.11-22.5-41.65-3.16-45.29 42.63-2.83 35.52 1.78 39.25 7.63 6.19 3.39-19.1 16.53-34.69 23.54-27.93 3.58 3.45-11.63 57.16-18.05 63.78-5.1 5.25-5.98 28.38-1.25 32.94 6 5.78 10.42-1.24 13.16-20.92zm348.39 249.49c-11.84-16.05-20.75-29.92-19.81-30.83 0.95-0.91 9.05 2.82 18.01 8.28 22.76 13.9 42.32 52.56 26.23 51.85-1.6-0.07-12.6-13.25-24.43-29.3zm-93.99-2.29c-3.92-9.83 8.36-17.51 16.97-10.61 4.87 3.89 5.06 6.79 0.8 11.73-7.5 8.72-14.02 8.31-17.77-1.12zm-280.71-21.14c0-2.64 2.24-4.8 4.98-4.8s4.99 2.16 4.99 4.8c0 2.65-2.25 4.81-4.99 4.81s-4.98-2.16-4.98-4.81zm124.6-14.41c0-2.64 2.24-4.81 4.98-4.81s4.98 2.17 4.98 4.81-2.24 4.8-4.98 4.8-4.98-2.16-4.98-4.8zm-79.75-4.81c0-2.64 3.37-4.8 7.48-4.8s7.48 2.16 7.48 4.8c0 2.65-3.37 4.81-7.48 4.81s-7.48-2.16-7.48-4.81zm240.48-12.79c-21.94-7.49-28.21-16.04-11.76-16.04 8.52 0 57.42 18.87 49.54 19.12-1.83 0.06-6.31 1.01-9.96 2.13-3.65 1.11-16.17-1.23-27.82-5.21zm-225.52-18.44c0-4.4 2.8-7.11 6.23-6 7.05 2.26 6.28 9.99-1.25 12.41-2.74 0.88-4.98-2-4.98-6.41zm267.45-14.48c13.38-7.73 24.39-19.24 30.99-32.39 5.64-11.23 14.8-24.17 20.37-28.76 12.23-10.1 12.63-14.96 2.06-25.16-7.43-7.15-8.78-7.16-16.95-0.03-10.56 9.21-17.17 2.49-12.25-12.45 7.16-21.74 45.75-19.54 56.51 3.22 8.98 19 6.74 32.73-8.6 52.87-19.67 25.82-34.98 38.61-56.66 47.34-29.25 11.79-38.89 8.89-15.47-4.64zm-282.41-8.86c0-5.72 9.81-12.7 17.86-12.7 6.16 0 0.7 9.99-7.89 14.42-7.8 4.03-9.97 3.65-9.97-1.72zm82.24 1.72c1.69-2.64 5.19-4.81 7.77-4.81s4.69 2.17 4.69 4.81-3.5 4.8-7.77 4.8c-4.28 0-6.39-2.16-4.69-4.8zm-112.14-38.44c0-2.64 2.24-4.81 4.98-4.81 2.75 0 4.99 2.17 4.99 4.81s-2.24 4.8-4.99 4.8c-2.74 0-4.98-2.16-4.98-4.8zm62.56 0.41c-1.6-2.5-0.79-5.82 1.81-7.36 2.59-1.55 6.03-0.77 7.63 1.73 1.61 2.51 0.8 5.82-1.8 7.37s-6.03 0.76-7.64-1.74zm2.23-74.14c0-8.62 18.85-27.18 27.61-27.18 13.31 0 7.52 13.33-10.16 23.39-12.11 6.89-17.45 8.05-17.45 3.79z"/>
      <path id="path9398" style="stroke:#84061e;fill:#6ad500" d="m380.73 970.67c-10.65-10.26-6.36-12.9 8.97-5.53 8.22 3.96 14.95 8.12 14.95 9.25 0 4.52-18.33 1.67-23.92-3.72zm35.61-7.83c4.53-4.83 8.42-12.94 8.64-18.02 0.23-5.44 1.45-6.68 2.98-3.01 4.41 10.6-3.14 29.82-11.72 29.82-7.51 0-7.51-0.69 0.1-8.79zm-31.63-34.17c0-2.8 2.24-5.09 4.99-5.09 2.74 0 4.98 0.95 4.98 2.12 0 1.16-2.24 3.45-4.98 5.09-2.75 1.63-4.99 0.68-4.99-2.12zm115.88-155.25c1.14-3.3 5.06-6 8.72-6 3.65 0 7.58 2.7 8.72 6 1.24 3.58-2.3 6.01-8.72 6.01s-9.96-2.43-8.72-6.01zm67.24-187.78c-5.78-13.78-4.75-25.37 1.71-19.15 2.97 2.87 4.63 10.33 3.69 16.58-1.51 10.01-2.15 10.32-5.4 2.57zm-112.99-44.24c-5.67-14.63-10.32-31.43-10.32-37.32 0-5.9-5.71-18.82-12.69-28.72-11.03-15.65-11.64-18.39-4.65-20.97 4.42-1.64 10.58-0.53 13.69 2.47 3.1 2.99 12.48 5.47 20.84 5.51 9.73 0.05 12.91 1.48 8.83 3.98-4.98 3.04-4.31 6.46 3.05 15.54 5.19 6.4 14.22 20.75 20.08 31.87 17.92 34.03 12.36 54.25-14.9 54.25-11.93 0-14.87-3.27-23.93-26.61zm37.55 4.69c3.91-15.04-10.76-48.67-24.27-55.64-5.23-2.7-10.44-4-11.58-2.9s-0.65 15.12 1.09 31.17c2.52 23.2 5.32 30.18 13.72 34.1 15.67 7.32 17.54 6.72 21.04-6.73zm127.5-25.94c-12.9-16.83-13.55-20.09-3.24-16.27 8.5 3.14 24.93 30.49 18.32 30.49-2.29 0-9.08-6.39-15.08-14.22zm-217.41-20.82c1.87-4.74 4.65-7.4 6.19-5.93 1.53 1.48 0 5.36-3.4 8.62-4.93 4.71-5.5 4.16-2.79-2.69zm-210.86-10.87c7.52-8.07 13.67-18.34 13.67-22.82 0-7.89 14.85-11.45 21.4-5.13 6.6 6.36-11.65 30.62-23.02 30.62-6.24 0-14.57 2.7-18.52 6.01-3.96 3.3-1.04-0.6 6.47-8.68zm193.09-31.07c-6.33-4.04-5.57-6.22 4.99-14.24 6.85-5.21 14.39-9.51 16.76-9.57s3.35-6.37 2.18-14.03c-1.53-10.07-0.31-13.25 4.42-11.5 8.86 3.28 8.32 7.21-4.42 32.5-11.81 23.43-12.65 24.02-23.93 16.84zm84.73-27.98c0-5.77 17.11-19.97 24.06-19.97 8.76 0 7.04 17.75-2.04 21.11-11.25 4.16-22.02 3.61-22.02-1.14zm121.57-11.56c4.49-5.94 10.8-16.21 14.02-22.82s10.1-16.67 15.29-22.35c5.18-5.69 8.68-15.42 7.77-21.63-1.38-9.38-4.39-11.16-17.86-10.57-18.81 0.82-22.1-9.33-5.76-17.77 21.85-11.27 44.58 6.85 44.27 35.31-0.14 13.54-48.74 70.64-60.12 70.64-3.66 0-2.79-3.94 2.39-10.81zm-241.19-32.75c0-15.24-9.26-28.51-19.9-28.51-5.28 0-15.22 5.85-22.09 13l-12.5 12.99-11.38-10.04c-17.93-15.82-31.76-17.92-43.52-6.59-10 9.65-10.22 9.66-10.22 0.44 0-5.19 4.12-13.29 9.16-18.02 11.62-10.91 10.84-25.41-3.3-60.98-8.46-21.28-10.9-36.16-9.81-59.67 0.83-17.89 3.88-32.1 7.1-33.13 3.9-1.24 4.84 5.09 3.04 20.44-4.24 36.34 14.67 94.22 26.93 82.4 1.63-1.57 4.95-13.08 7.37-25.58 4.2-21.65 17.69-48.17 22.27-43.75 1.18 1.14-2.26 11.69-7.65 23.44s-11.11 29.93-12.7 40.39c-3.21 21.11 3.28 48.4 11.14 46.83 2.79-0.55 8.97 3.15 13.74 8.23 8.01 8.52 10.03 8.7 26.05 2.24 21.4-8.62 25.03-6.63 29.13 15.94 1.78 9.81 6.78 20.55 11.11 23.85 6.93 5.29 6.57 6.01-3.04 6.01-7.72 0-10.93-2.92-10.93-9.93zm121.7-57.89c7.37-5.59 14.51-9.09 15.86-7.78 3.96 3.82-12.93 17.94-21.46 17.94-5.3 0-3.51-3.25 5.6-10.16zm-181.41-2.2c-0.18-19.44 16.19-55.59 32.91-72.68 9.33-9.54 18.4-15.96 20.15-14.27 1.76 1.69-2.76 7.59-10.03 13.1-7.36 5.58-13.22 14.86-13.22 20.92 0 6-6.69 22.6-14.86 36.89-9.81 17.16-14.89 22.61-14.95 16.04zm46.07-29.4c4.63-4.47 10.09-6.51 12.14-4.54 2.04 1.97 0.41 5.59-3.62 8.05-12.14 7.4-17.53 5.18-8.52-3.51zm148.21-15.9c0-6.19 2.52-9.6 6.23-8.41 3.43 1.1 6.23 4.89 6.23 8.41s-2.8 7.31-6.23 8.41c-3.71 1.19-6.23-2.22-6.23-8.41zm-231.78-54.06c5.44-26.04 7.97-32.43 12.82-32.43 6.13 0 5.87 6.99-1.12 29.47-6.99 22.51-16.27 24.86-11.7 2.96zm210.33 3.93c-6.34-4.63-17.72-5.81-38.54-3.99-20.36 1.78-31.97 0.64-37.34-3.66-16.46-13.17 17.49-19.03 52.18-9.01 18.02 5.21 47.41 23.37 37.67 23.28-2.74-0.02-9.03-3-13.97-6.62z"/>
    </g>
  </g>
  <metadata>
    <rdf:RDF>
      <cc:Work>
        <dc:format>image/svg+xml</dc:format>
        <dc:type rdf:resource="http://purl.org/dc/dcmitype/StillImage"/>
        <cc:license rdf:resource="http://creativecommons.org/licenses/publicdomain/"/>
        <dc:publisher>
          <cc:Agent rdf:about="http://openclipart.org/">
            <dc:title>Openclipart</dc:title>
          </cc:Agent>
        </dc:publisher>
        <dc:title>DECOR-24</dc:title>
        <dc:date>2010-08-25T19:09:21</dc:date>
        <dc:description/>
        <dc:source>https://openclipart.org/detail/82267/decor-24-by-waferd</dc:source>
        <dc:creator>
          <cc:Agent>
            <dc:title>waferd</dc:title>
          </cc:Agent>
        </dc:creator>
        <dc:subject>
          <rdf:Bag>
            <rdf:li>decoration</rdf:li>
            <rdf:li>floral</rdf:li>
            <rdf:li>ornament</rdf:li>
          </rdf:Bag>
        </dc:subject>
      </cc:Work>
      <cc:License rdf:about="http://creativecommons.org/licenses/publicdomain/">
        <cc:permits rdf:resource="http://creativecommons.org/ns#Reproduction"/>
        <cc:permits rdf:resource="http://creativecommons.org/ns#Distribution"/>
        <cc:permits rdf:resource="http://creativecommons.org/ns#DerivativeWorks"/>
      </cc:License>
    </rdf:RDF>
  </metadata>
</svg>
